<svg width="441" height="211" viewBox="0 0 441 211" fill="none" xmlns="http://www.w3.org/2000/svg">
<path d="M6 34.8688C6 34.8688 86.7294 54.5451 137.887 47.4616C189.045 40.3782 198.627 42.6916 248.188 45.0766C297.748 47.4616 381.648 25.3765 395.248 30.8859C408.848 36.3952 428.014 38.6371 436 39.4957" stroke="white" stroke-width="10" stroke-linecap="round" stroke-linejoin="round"/>
<path d="M242 67C242 67 234.712 78.1404 235.562 113.809C236.413 149.477 227.546 177.726 225.141 191.138C222.736 204.55 216.322 206 216.322 206H181" stroke="white" stroke-width="10" stroke-linecap="round" stroke-linejoin="round"/>
<path d="M102.5 45C113.822 45 123 36.0457 123 25C123 13.9543 113.822 5 102.5 5C91.1782 5 82 13.9543 82 25C82 36.0457 91.1782 45 102.5 45Z" stroke="white" stroke-width="10" stroke-linecap="round" stroke-linejoin="round"/>
</svg>
