<svg width="359" height="502" viewBox="0 0 359 502" fill="none" xmlns="http://www.w3.org/2000/svg">
<path d="M221 0.389893C87.1965 32.3759 19.2469 145.655 2.59815 224.065C-7.07661 269.631 15.5159 309.047 41.6303 343.535C48.1911 352.2 55.0311 360.624 61.703 368.793L63.5479 371.052C69.5872 378.443 75.4486 385.616 80.8754 392.65C92.8883 408.22 102.392 422.638 106.708 436.351C126.045 497.793 225.214 535.148 291.132 457.545L291.159 457.513L291.185 457.481C303.898 441.935 327.424 418.514 356.428 399.115C356.986 398.742 357.546 398.37 358.107 398H342.277C316.705 416.493 296.092 437.271 284.248 451.747C222.977 523.843 132.53 488.421 115.293 433.649C110.464 418.307 100.088 402.818 88.0008 387.152C82.4925 380.013 76.5501 372.74 70.5258 365.367L70.5173 365.357L68.674 363.101C62.0009 354.93 55.2557 346.621 48.8054 338.102C22.8761 303.859 2.61277 267.329 11.4021 225.935C27.4591 150.31 92.7582 41.374 221 9.66463V0.389893Z" fill="#7EC6EA"/>
</svg>
