<svg width="404" height="338" viewBox="0 0 404 338" fill="none" xmlns="http://www.w3.org/2000/svg">
<path fill-rule="evenodd" clip-rule="evenodd" d="M15.9053 4.06587C16.8583 4.57229 17.2203 5.75496 16.7139 6.70744C10.9161 17.6122 6.09592 37.972 8.83532 60.0135C11.5656 81.9811 21.7858 105.497 45.9147 122.969C58.2105 131.872 75.4659 134.873 95.2143 136.427C101.387 136.912 107.807 137.256 114.358 137.606C128.55 138.366 143.36 139.158 157.624 141.5C178.568 144.939 198.755 151.762 214.925 166.949C231.112 182.152 243.047 205.522 247.912 241.609C252.707 277.177 262.863 300.17 275.554 313.735C288.172 327.222 303.434 331.543 318.977 329.521C334.605 327.488 350.6 319.018 364.363 306.747C378.116 294.486 389.511 278.543 395.99 261.774C396.379 260.768 397.51 260.267 398.517 260.656C399.523 261.045 400.024 262.176 399.635 263.182C392.915 280.574 381.143 297.022 366.965 309.663C352.799 322.293 336.102 331.232 319.482 333.395C302.777 335.568 286.236 330.871 272.7 316.403C259.237 302.013 248.891 278.115 244.039 242.13C239.258 206.666 227.609 184.222 212.249 169.796C196.872 155.353 177.548 148.731 156.992 145.355C142.939 143.047 128.506 142.277 114.427 141.525C107.817 141.172 101.286 140.823 94.9085 140.321C75.1524 138.767 56.888 135.737 43.6226 126.132C18.4678 107.918 7.79671 83.3414 4.95716 60.4942C2.12678 37.7208 7.05834 16.5434 13.2629 4.87352C13.7693 3.92104 14.9524 3.55945 15.9053 4.06587Z" fill="#C4BADD" stroke="#C4BADD" stroke-width="7" stroke-linecap="round" stroke-linejoin="round"/>
</svg>
