<svg width="455" height="536" viewBox="0 0 455 536" fill="none" xmlns="http://www.w3.org/2000/svg">
<path d="M345.896 235.548C327.057 213.87 298.562 196.049 266.387 179.246C250.254 170.82 233.067 162.587 215.564 154.23L213.395 153.194C196.566 145.161 179.462 136.996 162.613 128.369C92.0555 92.2472 27.5639 48.7747 8.85639 -23.6257L0.142578 -21.3742C19.9351 55.2254 87.9434 100.253 158.511 136.381C175.474 145.065 192.679 153.278 209.479 161.298L209.481 161.299L211.687 162.352C229.209 170.718 246.253 178.884 262.221 187.223C294.25 203.951 321.442 221.13 339.103 241.452C374.5 282.183 381.381 337.237 384.068 388.548C384.468 396.184 384.776 403.762 385.078 411.191L385.078 411.195C385.78 428.459 386.449 444.921 388.163 459.457C390.606 480.167 395.274 498.304 406.203 510.064C418.279 523.057 435.046 531.1 455 535.671V526.424C437.18 522.066 422.911 514.821 412.796 503.937C403.975 494.446 399.518 478.895 397.101 458.403C395.429 444.225 394.783 428.324 394.09 411.245L394.09 411.242L394.09 411.24C393.785 403.731 393.471 395.995 393.056 388.077C390.368 336.763 383.499 278.817 345.896 235.548Z" fill="#7EC6EA"/>
</svg>
