<svg width="1693" height="365" viewBox="0 0 1693 365" fill="none" xmlns="http://www.w3.org/2000/svg">
<path fill-rule="evenodd" clip-rule="evenodd" d="M1294.58 111.411C1379.72 145.722 1464.71 133.571 1535.52 105.929C1606.29 78.3004 1663.28 35.0611 1692.88 6.47366L1686.63 0C1657.73 27.9126 1601.72 70.4232 1532.25 97.5449C1462.81 124.653 1380.3 136.252 1297.94 103.063C1230.29 75.8015 1138.04 59.4977 1044.01 62.0671C949.995 64.6361 853.729 86.087 778.316 134.802C762.529 145 746.706 155.508 730.688 166.146L730.682 166.149C595.291 256.063 445.922 355.259 185.757 355.259C141.148 355.259 92.5196 340.93 42.5332 318.216C34.9498 314.771 27.342 311.135 19.7194 307.332H0C12.9622 314.155 25.9147 320.551 38.8099 326.41C89.3649 349.382 139.336 364.259 185.757 364.259C448.737 364.259 600.194 263.645 735.684 173.638L735.686 173.637C751.694 163.003 767.48 152.516 783.2 142.361C856.787 94.8261 951.271 73.6046 1044.26 71.0638C1137.23 68.5233 1228.23 84.6722 1294.58 111.411Z" fill="#7EC6EA"/>
</svg>
