<svg width="1500" height="397" viewBox="0 0 1500 397" fill="none" xmlns="http://www.w3.org/2000/svg">
<path d="M0.96875 229H10.4973C28.8322 281.011 53.4377 313.783 81.3201 333.521C112.727 355.754 148.885 361.869 186.35 359.562C223.887 357.249 262.405 346.503 298.255 335.321C304.708 333.308 311.087 331.276 317.365 329.277C345.678 320.258 371.915 311.901 393.391 308.966C445.41 301.858 488.535 304.556 529.54 316.566C570.488 328.559 609.062 349.763 652.049 379.291C663.923 387.448 684.986 389.554 714.256 385.648C743.217 381.782 779.07 372.202 819.474 358.38C900.248 330.747 998.524 286.4 1094.92 237.93C1191.28 189.473 1285.64 136.962 1358.53 93.0583C1394.98 71.1044 1426.03 51.3263 1449.26 35.3009C1460.88 27.2861 1470.5 20.2385 1477.85 14.3473C1485.3 8.3795 1490.12 3.82677 1492.41 0.791016L1499.59 6.20929C1496.57 10.2195 1490.97 15.3711 1483.48 21.3701C1475.9 27.4458 1466.09 34.6278 1454.37 42.7094C1430.93 58.8768 1399.72 78.7593 1363.17 100.768C1290.08 144.79 1195.53 197.412 1098.96 245.971C1002.41 294.518 903.722 339.07 822.387 366.896C781.736 380.802 745.249 390.591 715.447 394.568C685.953 398.505 661.828 396.927 646.953 386.709C604.339 357.437 566.663 336.817 527.011 325.203C487.416 313.606 445.591 310.917 394.61 317.884C373.983 320.702 348.717 328.745 320.435 337.748L320.414 337.755C314.067 339.775 307.568 341.844 300.935 343.913C265.035 355.111 225.616 366.16 186.903 368.545C148.118 370.934 109.714 364.648 76.12 340.867C45.7756 319.386 19.842 283.975 0.96875 229Z" fill="#7EC6EA"/>
</svg>
