<svg width="26" height="26" viewBox="0 0 26 26" fill="none" xmlns="http://www.w3.org/2000/svg">
<path d="M13.8 16.4H11C10.4 16.4 10 16 10 15.4V12.6C10 12.3 10.1 12.1 10.3 11.9L20.9 1.3C21.1 1.1 21.3 1 21.6 1C21.9 1 22.1 1.1 22.3 1.3L25.1 4.1C25.5 4.5 25.5 5.1 25.1 5.5L14.5 16.1C14.3 16.3 14.1 16.4 13.8 16.4Z" fill="white"/>
<path d="M15.9 17.4999C15.3 18.0999 14.6 18.3999 13.8 18.3999H11C9.3 18.3999 8 17.0999 8 15.3999V12.5999C8 11.7999 8.3 10.9999 8.9 10.4999L14.9 4.3999H5C3.3 4.3999 2 5.6999 2 7.3999V21.3999C2 23.0999 3.3 24.3999 5 24.3999H19C20.7 24.3999 22 23.0999 22 21.3999V11.4999L15.9 17.4999Z" fill="white"/>
</svg>
