<svg width="26" height="26" viewBox="0 0 26 26" fill="none" xmlns="http://www.w3.org/2000/svg">
<path d="M19.5278 0H16.1555C12.3713 0 9.91288 2.5099 9.91288 6.39703V9.34455H6.52772C6.23168 9.34455 6 9.57624 6 9.87228V14.1455C6 14.4416 6.23168 14.6733 6.52772 14.6733H9.91288V25.4723C9.91288 25.7683 10.1446 26 10.4406 26H14.8683C15.1644 26 15.3961 25.7683 15.3961 25.4723V14.6861H19.3604C19.6565 14.6861 19.8882 14.4545 19.8882 14.1584V9.88515C19.8882 9.74356 19.8367 9.61485 19.7337 9.51188C19.6307 9.40891 19.502 9.35743 19.3604 9.35743H15.3961V6.8604C15.3961 5.66337 15.6792 5.04555 17.2495 5.04555H19.5149C19.8109 5.04555 20.0426 4.81386 20.0426 4.51782V0.527723C20.0555 0.244554 19.8238 0 19.5278 0Z" fill="white"/>
</svg>
