<svg width="26" height="26" viewBox="0 0 26 26" fill="none" xmlns="http://www.w3.org/2000/svg">
<path fill-rule="evenodd" clip-rule="evenodd" d="M10.385 16.4619V9.16659C12.9748 10.3852 14.9807 11.5625 17.353 12.8317C15.3963 13.9168 12.9748 15.1344 10.385 16.4619ZM24.8183 5.53827C24.3716 4.94968 23.6101 4.49152 22.7995 4.33983C20.4168 3.88737 5.55228 3.88608 3.1709 4.33983C2.52084 4.46169 1.94199 4.75625 1.44473 5.2139C-0.650471 7.15857 0.00606603 17.5872 0.511091 19.2765C0.723459 20.0077 0.997997 20.535 1.34374 20.8812C1.7892 21.3388 2.39911 21.6539 3.09967 21.7952C5.06149 22.201 15.1684 22.4279 22.7581 21.8562C23.4573 21.7343 24.0763 21.4091 24.5645 20.932C26.5017 18.9951 26.3696 7.98077 24.8183 5.53827Z" fill="white"/>
</svg>
