<svg width="26" height="26" viewBox="0 0 26 26" fill="none" xmlns="http://www.w3.org/2000/svg">
<path fill-rule="evenodd" clip-rule="evenodd" d="M3 8C3 5.23858 5.23858 3 8 3H18C20.7614 3 23 5.23858 23 8V18C23 20.7614 20.7614 23 18 23H8C5.23858 23 3 20.7614 3 18V8ZM17.4444 13C17.4444 15.4546 15.4546 17.4444 13 17.4444C10.5454 17.4444 8.55556 15.4546 8.55556 13C8.55556 10.5454 10.5454 8.55556 13 8.55556C15.4546 8.55556 17.4444 10.5454 17.4444 13ZM18.5556 8.55556C19.1692 8.55556 19.6667 8.05809 19.6667 7.44444C19.6667 6.83079 19.1692 6.33333 18.5556 6.33333C17.9419 6.33333 17.4444 6.83079 17.4444 7.44444C17.4444 8.05809 17.9419 8.55556 18.5556 8.55556Z" fill="white"/>
</svg>
