<svg width="397" height="712" viewBox="0 0 397 712" fill="none" xmlns="http://www.w3.org/2000/svg">
<path fill-rule="evenodd" clip-rule="evenodd" d="M388.758 0.393408C385.65 0.186667 382.545 0.0555164 379.452 0.014177C354.108 -0.324608 328.897 5.33327 308.198 25.1009C287.619 44.7535 272.216 77.6778 264.84 130.288C257.459 182.935 258.036 255.849 269.936 356.181C270.261 358.923 272.748 360.882 275.49 360.557C278.232 360.232 280.192 357.745 279.866 355.003C268.016 255.084 267.531 183.124 274.743 131.677C281.961 80.1935 296.808 49.8052 315.104 32.3328C333.28 14.9754 355.569 9.69582 379.319 10.0133C379.945 10.0217 380.571 10.0339 381.198 10.0499C383.638 6.76556 386.159 3.54573 388.758 0.393408Z" fill="#FFF5AD"/>
<path fill-rule="evenodd" clip-rule="evenodd" d="M288.069 163.007C254.444 162.642 221.048 176.09 200.624 188.682C198.274 190.132 195.193 189.401 193.744 187.05C192.295 184.7 193.026 181.62 195.376 180.17C216.873 166.916 252.118 152.616 288.178 153.008C324.627 153.404 361.804 168.87 385.808 214.787C401.146 244.128 398.98 286.271 384.558 332.891C370.061 379.751 342.869 432.177 306.613 482.915C234.182 584.276 124.804 679.936 6.26151 710.838C3.58939 711.535 0.858515 709.933 0.161936 707.261C-0.534643 704.589 1.06685 701.858 3.73897 701.162C119.196 671.064 226.816 577.384 298.477 477.101C334.267 427.016 360.895 375.545 375.005 329.935C389.189 284.086 390.416 245.187 376.946 219.42C354.856 177.164 321.305 163.368 288.069 163.007Z" fill="#E2D7FC"/>
</svg>
