<svg width="543" height="198" viewBox="0 0 543 198" fill="none" xmlns="http://www.w3.org/2000/svg">
<path fill-rule="evenodd" clip-rule="evenodd" d="M296.709 80.6388C301.894 118.665 336.035 156.092 415.303 197.657C416.77 198.426 418.583 197.861 419.353 196.393C420.122 194.926 419.556 193.113 418.089 192.343C339.285 151.022 307.659 114.996 302.708 80.1685C300.717 80.3569 298.717 80.5139 296.709 80.6388Z" fill="#FFF5AD"/>
<path fill-rule="evenodd" clip-rule="evenodd" d="M1.80845 0.246477C3.32906 -0.41148 5.09514 0.28784 5.7531 1.80845C8.59502 8.37645 11.3749 15.5914 14.2497 23.101C14.4305 23.5731 14.6116 24.0464 14.7931 24.5208C17.5071 31.6128 20.3196 38.9624 23.3884 46.3668C29.9396 62.1737 37.5964 78.0718 47.7289 91.8472C57.845 105.6 70.3842 117.176 86.6955 124.431C102.997 131.681 123.288 134.714 149.076 131.03C200.453 123.69 232.432 91.7007 262.797 60.7731C263.243 60.3187 263.688 59.8645 264.134 59.4105C293.767 29.218 322.443 -0.000212293 366.5 -0.000212293C401.895 -0.000212293 438.579 15.3133 469.874 34.1806C501.216 53.0766 527.492 75.7446 542.157 90.9147C543.308 92.106 543.276 94.0052 542.085 95.1568C540.894 96.3083 538.994 96.2761 537.843 95.0849C523.507 80.255 497.634 57.923 466.776 39.319C435.87 20.6863 400.305 5.99979 366.5 5.99979C324.977 5.99979 297.927 33.553 267.643 64.4014L267.078 64.9765C236.817 95.7989 203.547 129.309 149.924 136.97C123.211 140.786 101.753 137.694 84.2572 129.913C66.7716 122.136 53.467 109.774 42.8956 95.4024C32.3407 81.0528 24.4662 64.6384 17.8456 48.664C14.744 41.1806 11.904 33.7589 9.19555 26.6812C9.01188 26.2013 8.82882 25.7229 8.64632 25.2462C5.76534 17.7206 3.02956 10.6231 0.246477 4.19112C-0.41148 2.67051 0.28784 0.904434 1.80845 0.246477Z" fill="#C2D6DF"/>
</svg>
