<svg width="44" height="44" viewBox="0 0 44 44" fill="none" xmlns="http://www.w3.org/2000/svg">
<path d="M22.0002 4.25386C27.7838 4.25386 28.4627 4.27964 30.7486 4.38276C32.8627 4.47729 34.0057 4.82964 34.7705 5.13042C35.7846 5.52573 36.5064 5.98979 37.2627 6.74604C38.0189 7.50229 38.4916 8.22417 38.8783 9.23823C39.1705 10.0031 39.5314 11.146 39.626 13.2601C39.7291 15.546 39.7549 16.2249 39.7549 22.0085C39.7549 27.7921 39.7291 28.471 39.626 30.757C39.5314 32.871 39.1791 34.014 38.8783 34.7789C38.483 35.7929 38.0189 36.5148 37.2627 37.271C36.5064 38.0273 35.7846 38.4999 34.7705 38.8867C34.0057 39.1789 32.8627 39.5398 30.7486 39.6343C28.4627 39.7374 27.7838 39.7632 22.0002 39.7632C16.2166 39.7632 15.5377 39.7374 13.2518 39.6343C11.1377 39.5398 9.99473 39.1874 9.22988 38.8867C8.21582 38.4914 7.49395 38.0273 6.7377 37.271C5.98144 36.5148 5.50879 35.7929 5.12207 34.7789C4.82988 34.014 4.46895 32.871 4.37441 30.757C4.27129 28.471 4.24551 27.7921 4.24551 22.0085C4.24551 16.2249 4.27129 15.546 4.37441 13.2601C4.46895 11.146 4.82129 10.0031 5.12207 9.23823C5.51738 8.22417 5.98144 7.50229 6.7377 6.74604C7.49395 5.98979 8.21582 5.51714 9.22988 5.13042C9.99473 4.83823 11.1377 4.47729 13.2518 4.38276C15.5377 4.27104 16.2166 4.25386 22.0002 4.25386ZM22.0002 0.352295C16.1221 0.352295 15.383 0.378076 13.0713 0.481201C10.7682 0.584326 9.19551 0.953857 7.82051 1.48667C6.39394 2.03667 5.19082 2.78433 3.9877 3.98745C2.78457 5.19058 2.04551 6.40229 1.48691 7.82026C0.954101 9.19526 0.58457 10.7679 0.481445 13.0796C0.37832 15.3828 0.352539 16.1218 0.352539 21.9999C0.352539 27.8781 0.37832 28.6171 0.481445 30.9289C0.58457 33.232 0.954101 34.8046 1.48691 36.1882C2.03691 37.6148 2.78457 38.8179 3.9877 40.021C5.19082 41.2242 6.40254 41.9632 7.82051 42.5218C9.19551 43.0546 10.7682 43.4242 13.0799 43.5273C15.3916 43.6304 16.1221 43.6562 22.0088 43.6562C27.8955 43.6562 28.626 43.6304 30.9377 43.5273C33.2408 43.4242 34.8135 43.0546 36.1971 42.5218C37.6236 41.9718 38.8268 41.2242 40.0299 40.021C41.233 38.8179 41.9721 37.6062 42.5307 36.1882C43.0635 34.8132 43.433 33.2406 43.5361 30.9289C43.6393 28.6171 43.665 27.8867 43.665 21.9999C43.665 16.1132 43.6393 15.3828 43.5361 13.071C43.433 10.7679 43.0635 9.19526 42.5307 7.81167C41.9807 6.38511 41.233 5.18198 40.0299 3.97886C38.8268 2.77573 37.615 2.03667 36.1971 1.47808C34.8221 0.945264 33.2494 0.575732 30.9377 0.472607C28.6174 0.378076 27.8783 0.352295 22.0002 0.352295Z" fill="black"/>
<path d="M22.0002 10.8796C15.8643 10.8796 10.8799 15.8554 10.8799 22C10.8799 28.1445 15.8643 33.1203 22.0002 33.1203C28.1361 33.1203 33.1205 28.1359 33.1205 22C33.1205 15.864 28.1361 10.8796 22.0002 10.8796ZM22.0002 29.2187C18.0127 29.2187 14.7814 25.9875 14.7814 22C14.7814 18.0125 18.0127 14.7812 22.0002 14.7812C25.9877 14.7812 29.2189 18.0125 29.2189 22C29.2189 25.9875 25.9877 29.2187 22.0002 29.2187Z" fill="black"/>
<path d="M33.5587 13.0367C34.992 13.0367 36.154 11.8747 36.154 10.4414C36.154 9.00803 34.992 7.84607 33.5587 7.84607C32.1253 7.84607 30.9634 9.00803 30.9634 10.4414C30.9634 11.8747 32.1253 13.0367 33.5587 13.0367Z" fill="black"/>
</svg>
