<svg width="159" height="171" viewBox="0 0 159 171" fill="none" xmlns="http://www.w3.org/2000/svg">
<path d="M91.1 61.2C83.6 61.2 77.5 55.1 77.5 47.6C77.5 40.1 83.6 34 91.1 34C98.6 34 104.7 40.1 104.7 47.6C104.7 55.1 98.6 61.2 91.1 61.2ZM91.1 39.6C86.7 39.6 83.2 43.1 83.2 47.5C83.2 51.9 86.7 55.4 91.1 55.4C95.5 55.4 99 51.9 99 47.5C99 43.2 95.4 39.6 91.1 39.6Z" fill="white"/>
<path d="M126.9 164C125.3 164 124 162.7 124 161.1V109C124 80.5 110.2 74.5 98.7 74.5H47.7001C46.1001 74.5 44.8 73.2 44.8 71.6C44.8 70 46.1001 68.7 47.7001 68.7H98.7C118.4 68.7 129.7 83.4 129.7 108.9V161C129.8 162.7 128.5 164 126.9 164Z" fill="white"/>
<path d="M47.8 125.2H15.2C13.6 125.2 12.3 123.9 12.3 122.3C12.3 120.7 13.6 119.4 15.2 119.4H47.7001C84.3 119.4 114.1 90.3 114.1 54.6V13.3C114.1 11.7 115.4 10.4 117 10.4C118.6 10.4 119.9 11.7 119.9 13.3V54.6C119.8 93.6 87.5 125.2 47.8 125.2Z" fill="white"/>
<path d="M135.4 125.2C144.9 113.2 150.5 98 150.5 81.5C150.5 59.9 140.8 40.5 125.4 27.5V35.3C137.3 47.1 144.8 63.5 144.8 81.6C144.8 93.9 141.4 105.4 135.4 115.3V125.2Z" fill="white"/>
<path d="M79.7 146.6C63.5 146.6 48.7 140.7 37.3 130.9H29C41.9 144.1 59.9 152.4 79.8 152.4C94.1 152.4 107.4 148.1 118.5 140.8V133.8C107.6 141.8 94.2 146.6 79.7 146.6Z" fill="white"/>
<path d="M79.7 10.6C40.6 10.6 8.80005 42.4 8.80005 81.5C8.80005 93.2 11.6 104.2 16.7 113.9H23.2C17.7 104.3 14.5 93.3 14.5 81.5C14.5 45.6 43.7 16.4 79.6 16.4C89.9 16.4 99.7 18.8 108.4 23.1V16.8C99.7 12.8 89.9 10.6 79.7 10.6Z" fill="white"/>
</svg>
