<svg width="291" height="76" viewBox="0 0 291 76" fill="none" xmlns="http://www.w3.org/2000/svg">
<path d="M185.331 51.2824C182.195 54.0225 178.306 55.7839 174.156 56.344C163.5 58.0763 155.975 54.9697 151.687 49.8211L153.649 49.3953C166.228 47.0242 186.577 43.124 193.936 32.0332C195.5 29.7621 196.588 27.2054 197.135 24.5135C197.884 21.001 197.386 17.341 195.722 14.1485C191.228 5.54493 180.455 2.43835 171.31 2.87385C168.433 3.07863 165.576 3.50249 162.764 4.14165C146.487 8.01279 137.254 18.339 134.242 29.846C133.699 32.003 133.37 34.2071 133.261 36.427C132.171 43.5112 128.934 53.8471 111.861 56.7504C101.157 58.4925 92.6598 54.6213 88.4015 49.5114L90.3638 49.0856C102.933 46.7145 123.292 42.8143 130.592 31.7235C132.161 29.4587 133.249 26.9041 133.79 24.2135C134.546 20.698 134.047 17.0331 132.378 13.8388C127.894 5.24491 117.12 2.12865 107.966 2.56415C105.092 2.76819 102.238 3.19207 99.4298 3.83195C83.1522 7.70309 73.9194 18.0294 70.9072 29.5267C69.6515 34.3458 69.4941 39.3796 70.4461 44.266C74.4591 64.5895 95.0539 72.8834 114.854 70.1639C124.724 68.809 131.691 65.1508 139.383 57.4859C147.537 68.3638 162.382 72.5253 177.148 69.7284C190.659 67.1057 202.58 58.4344 203.767 43.8208L189.462 42.6982C189.24 45.963 187.783 49.0267 185.38 51.2824H185.331ZM102.962 17.6519C119.456 13.7808 128.109 23.178 108.466 30.0976C100.352 33.001 89.9125 34.6849 84.4866 35.7592C85.5463 25.9749 93.6704 19.8682 102.962 17.6423V17.6519ZM166.267 17.9616C182.761 14.0905 191.414 23.4974 171.771 30.4073C163.667 33.3107 153.218 34.9946 147.792 36.0785C148.851 26.2846 156.975 20.1778 166.267 17.9616Z" fill="#016373"/>
<path d="M47.9988 54.3024C43.8092 57.8445 34.3213 56.509 30.2102 52.8991C25.3044 48.5538 23.862 40.2211 24.0092 31.0852C35.8912 31.6756 48.666 31.9756 59.1253 30.8627L57.5554 16.7136C48.2147 17.7492 36.3425 17.4588 25.1768 16.9362C25.7753 11.9231 26.6682 7.14227 27.3452 3.00983L27.5709 2.3614L13.3734 0L13.2262 0.667774C12.402 5.23572 11.5091 10.5392 10.7634 16.1523C7.02515 15.9297 3.59107 15.7846 0.294339 15.7072L0 29.9336C2.61972 30.0013 5.88698 30.1465 9.64486 30.3691C9.27201 45.6311 12.4019 60.5156 25.3436 67.0675C34.9787 71.9064 48.9505 72.2258 57.4671 65.1319C63.5209 59.9736 67.2788 51.4281 67.7792 38.1597L53.356 37.6468C52.9832 46.4924 51.1091 51.7281 48.0479 54.3024" fill="#016373"/>
<path d="M282.732 5.78705C281.689 5.07082 280.541 4.516 279.328 4.14181C271.076 1.40297 262.648 8.68072 255.525 18.3876C254.249 9.06783 249.638 2.41914 238.943 2.65141C229.896 2.89335 223.862 8.83556 219.663 16.6649C219.339 11.4195 219.27 6.72579 219.418 3.3579L204.111 2.6611C203.63 12.2035 205.298 29.6623 206.731 45.1468C207.997 58.6958 209.184 70.5802 208.87 71.2093L223.705 74.6449C223.705 74.2191 223.705 73.8126 223.705 73.4352C223.555 68.8564 223.699 64.2728 224.137 59.712C224.971 50.5181 226.747 40.3563 229.533 32.256C230.093 30.5817 230.711 28.9752 231.378 27.417C233.949 21.3781 240.287 10.9066 240.64 23.5943C240.885 31.9656 238.109 43.3081 236.519 49.7245C232.398 66.7091 245.409 68.8188 252.463 54.4279C254.769 49.647 258.654 41.7499 262.54 34.4722C266.906 26.488 276.424 7.08388 274.52 28.288C273.57 36.4072 271.762 44.406 269.124 52.1536C266.906 58.8023 264.365 64.5219 262.383 67.3382L274.913 75.9418C277.689 71.9545 280.947 64.909 283.645 56.8474C286.588 48.1373 289.041 38.0723 289.748 29.5365C290.729 19.0554 288.963 9.97755 282.772 5.74833" fill="#016373"/>
</svg>
