<svg width="159" height="285" viewBox="0 0 159 285" fill="none" xmlns="http://www.w3.org/2000/svg">
<path d="M48.7895 203.456C48.8508 204.253 49.1575 204.974 49.7095 205.618C50.2922 206.231 51.1815 206.538 52.3775 206.538C53.2668 206.538 53.9262 206.339 54.3555 205.94C54.8155 205.541 55.0455 205.081 55.0455 204.56C55.0455 204.131 54.8768 203.763 54.5395 203.456C54.2328 203.119 53.6502 202.858 52.7915 202.674L50.1695 202.076C48.9428 201.8 47.9002 201.432 47.0415 200.972C46.1828 200.512 45.4775 199.975 44.9255 199.362C44.3735 198.749 43.9748 198.074 43.7295 197.338C43.4842 196.602 43.3615 195.835 43.3615 195.038C43.3615 193.995 43.5762 193.014 44.0055 192.094C44.4348 191.174 45.0328 190.377 45.7995 189.702C46.5968 188.997 47.5322 188.445 48.6055 188.046C49.6788 187.647 50.8595 187.448 52.1475 187.448C53.8035 187.448 55.1988 187.678 56.3335 188.138C57.4682 188.598 58.3882 189.181 59.0935 189.886C59.8295 190.561 60.3662 191.297 60.7035 192.094C61.0408 192.861 61.2402 193.581 61.3015 194.256L55.5055 195.314C55.4135 194.547 55.1068 193.888 54.5855 193.336C54.0948 192.784 53.3128 192.508 52.2395 192.508C51.5648 192.508 50.9822 192.692 50.4915 193.06C50.0008 193.397 49.7555 193.873 49.7555 194.486C49.7555 194.977 49.9242 195.36 50.2615 195.636C50.5988 195.912 51.0282 196.096 51.5495 196.188L54.5855 196.786C56.9775 197.277 58.7408 198.181 59.8755 199.5C61.0408 200.788 61.6235 202.275 61.6235 203.962C61.6235 204.943 61.4395 205.894 61.0715 206.814C60.7035 207.734 60.1362 208.562 59.3695 209.298C58.6028 210.003 57.6522 210.571 56.5175 211C55.3828 211.46 54.0488 211.69 52.5155 211.69C50.7062 211.69 49.1882 211.445 47.9615 210.954C46.7655 210.433 45.7995 209.804 45.0635 209.068C44.3275 208.332 43.7755 207.55 43.4075 206.722C43.0702 205.894 42.8862 205.158 42.8555 204.514L48.7895 203.456Z" fill="white"/>
<path d="M81.583 211C81.5217 210.785 81.4757 210.433 81.445 209.942C81.4144 209.421 81.399 209.007 81.399 208.7C80.7857 209.681 79.8964 210.402 78.731 210.862C77.5964 211.291 76.4464 211.506 75.281 211.506C73.901 211.506 72.659 211.276 71.555 210.816C70.4817 210.325 69.577 209.681 68.841 208.884C68.105 208.056 67.5377 207.105 67.139 206.032C66.771 204.959 66.587 203.809 66.587 202.582V188.138H73.579V201.11C73.579 202.214 73.8704 203.149 74.453 203.916C75.0664 204.683 76.0017 205.066 77.259 205.066C78.4244 205.066 79.3444 204.713 80.019 204.008C80.7244 203.272 81.077 202.321 81.077 201.156V188.138H88.069V206.906C88.069 207.949 88.0997 208.853 88.161 209.62C88.2224 210.356 88.2684 210.816 88.299 211H81.583Z" fill="white"/>
<path d="M101.467 211H94.4748V188.138H101.237V190.76C101.543 190.208 101.942 189.733 102.433 189.334C102.923 188.935 103.445 188.613 103.997 188.368C104.579 188.092 105.177 187.893 105.791 187.77C106.435 187.617 107.048 187.54 107.631 187.54C109.072 187.54 110.314 187.785 111.357 188.276C112.399 188.736 113.258 189.38 113.933 190.208C114.638 191.036 115.144 192.002 115.451 193.106C115.788 194.21 115.957 195.391 115.957 196.648V211H108.965V197.844C108.965 196.709 108.658 195.774 108.045 195.038C107.462 194.271 106.527 193.888 105.239 193.888C104.073 193.888 103.153 194.271 102.479 195.038C101.804 195.774 101.467 196.725 101.467 197.89V211Z" fill="white"/>
<path d="M20.4115 241V218.138H27.0815V220.76C27.3575 220.269 27.7408 219.825 28.2315 219.426C28.7222 218.997 29.2588 218.644 29.8415 218.368C30.4548 218.061 31.0835 217.831 31.7275 217.678C32.4022 217.525 33.0462 217.448 33.6595 217.448C35.3155 217.448 36.7108 217.77 37.8455 218.414C38.9802 219.027 39.8388 219.901 40.4215 221.036C41.3108 219.748 42.3228 218.828 43.4575 218.276C44.5922 217.724 45.9415 217.448 47.5055 217.448C48.5788 217.448 49.6215 217.617 50.6335 217.954C51.6762 218.261 52.5808 218.767 53.3475 219.472C54.1448 220.177 54.7735 221.082 55.2335 222.186C55.7242 223.29 55.9695 224.624 55.9695 226.188V241H49.2075V227.752C49.2075 226.679 48.9162 225.774 48.3335 225.038C47.7508 224.271 46.8308 223.888 45.5735 223.888C44.3162 223.888 43.3655 224.287 42.7215 225.084C42.0775 225.881 41.7555 226.786 41.7555 227.798V241H34.8555V227.752C34.8555 226.679 34.5642 225.774 33.9815 225.038C33.3988 224.271 32.4635 223.888 31.1755 223.888C29.9488 223.888 29.0135 224.287 28.3695 225.084C27.7255 225.881 27.4035 226.801 27.4035 227.844V241H20.4115Z" fill="white"/>
<path d="M73.0307 235.25C73.7054 235.25 74.3494 235.143 74.9627 234.928C75.576 234.683 76.1127 234.33 76.5727 233.87C77.0634 233.379 77.4467 232.781 77.7227 232.076C78.0294 231.371 78.1827 230.527 78.1827 229.546C78.1827 228.595 78.0294 227.767 77.7227 227.062C77.4467 226.326 77.0634 225.728 76.5727 225.268C76.1127 224.808 75.576 224.471 74.9627 224.256C74.3494 224.011 73.7054 223.888 73.0307 223.888C72.3867 223.888 71.7427 224.011 71.0987 224.256C70.4854 224.471 69.9334 224.808 69.4427 225.268C68.9827 225.728 68.5994 226.326 68.2927 227.062C68.0167 227.767 67.8787 228.595 67.8787 229.546C67.8787 230.497 68.0167 231.34 68.2927 232.076C68.5994 232.781 68.9827 233.379 69.4427 233.87C69.9334 234.33 70.4854 234.683 71.0987 234.928C71.7427 235.143 72.3867 235.25 73.0307 235.25ZM73.0307 217.448C74.748 217.448 76.3427 217.755 77.8147 218.368C79.2867 218.951 80.5594 219.779 81.6327 220.852C82.7367 221.925 83.5954 223.198 84.2087 224.67C84.8527 226.142 85.1747 227.767 85.1747 229.546C85.1747 231.325 84.8527 232.965 84.2087 234.468C83.5954 235.94 82.7367 237.213 81.6327 238.286C80.5594 239.359 79.2867 240.203 77.8147 240.816C76.3427 241.399 74.748 241.69 73.0307 241.69C71.3134 241.69 69.7187 241.399 68.2467 240.816C66.7747 240.203 65.4867 239.359 64.3827 238.286C63.3094 237.213 62.4507 235.94 61.8067 234.468C61.1934 232.965 60.8867 231.325 60.8867 229.546C60.8867 227.767 61.1934 226.142 61.8067 224.67C62.4507 223.198 63.3094 221.925 64.3827 220.852C65.4867 219.779 66.7747 218.951 68.2467 218.368C69.7187 217.755 71.3134 217.448 73.0307 217.448Z" fill="white"/>
<path d="M101.093 235.25C101.767 235.25 102.411 235.143 103.025 234.928C103.638 234.683 104.175 234.33 104.635 233.87C105.125 233.379 105.509 232.781 105.785 232.076C106.091 231.371 106.245 230.527 106.245 229.546C106.245 228.595 106.091 227.767 105.785 227.062C105.509 226.326 105.125 225.728 104.635 225.268C104.175 224.808 103.638 224.471 103.025 224.256C102.411 224.011 101.767 223.888 101.093 223.888C100.449 223.888 99.8047 224.011 99.1607 224.256C98.5474 224.471 97.9954 224.808 97.5047 225.268C97.0447 225.728 96.6614 226.326 96.3547 227.062C96.0787 227.767 95.9407 228.595 95.9407 229.546C95.9407 230.497 96.0787 231.34 96.3547 232.076C96.6614 232.781 97.0447 233.379 97.5047 233.87C97.9954 234.33 98.5474 234.683 99.1607 234.928C99.8047 235.143 100.449 235.25 101.093 235.25ZM101.093 217.448C102.81 217.448 104.405 217.755 105.877 218.368C107.349 218.951 108.621 219.779 109.695 220.852C110.799 221.925 111.657 223.198 112.271 224.67C112.915 226.142 113.237 227.767 113.237 229.546C113.237 231.325 112.915 232.965 112.271 234.468C111.657 235.94 110.799 237.213 109.695 238.286C108.621 239.359 107.349 240.203 105.877 240.816C104.405 241.399 102.81 241.69 101.093 241.69C99.3754 241.69 97.7807 241.399 96.3087 240.816C94.8367 240.203 93.5487 239.359 92.4447 238.286C91.3714 237.213 90.5127 235.94 89.8687 234.468C89.2554 232.965 88.9487 231.325 88.9487 229.546C88.9487 227.767 89.2554 226.142 89.8687 224.67C90.5127 223.198 91.3714 221.925 92.4447 220.852C93.5487 219.779 94.8367 218.951 96.3087 218.368C97.7807 217.755 99.3754 217.448 101.093 217.448Z" fill="white"/>
<path d="M125.291 241H118.299V218.138H125.061V220.76C125.367 220.208 125.766 219.733 126.257 219.334C126.747 218.935 127.269 218.613 127.821 218.368C128.403 218.092 129.001 217.893 129.615 217.77C130.259 217.617 130.872 217.54 131.455 217.54C132.896 217.54 134.138 217.785 135.181 218.276C136.223 218.736 137.082 219.38 137.757 220.208C138.462 221.036 138.968 222.002 139.275 223.106C139.612 224.21 139.781 225.391 139.781 226.648V241H132.789V227.844C132.789 226.709 132.482 225.774 131.869 225.038C131.286 224.271 130.351 223.888 129.063 223.888C127.897 223.888 126.977 224.271 126.303 225.038C125.628 225.774 125.291 226.725 125.291 227.89V241Z" fill="white"/>
<path d="M42.9342 266.984H45.7662L50.1822 274.568L54.5982 266.984H57.2862L51.2862 276.728V284H48.9342V276.728L42.9342 266.984Z" fill="white"/>
<path d="M62.1613 275.48C62.1613 276.584 62.3293 277.56 62.6653 278.408C63.0173 279.24 63.4733 279.944 64.0333 280.52C64.6093 281.08 65.2653 281.504 66.0013 281.792C66.7373 282.064 67.5053 282.2 68.3053 282.2C69.0893 282.2 69.8493 282.064 70.5853 281.792C71.3373 281.504 71.9933 281.08 72.5533 280.52C73.1293 279.944 73.5853 279.24 73.9213 278.408C74.2733 277.56 74.4493 276.584 74.4493 275.48C74.4493 274.376 74.2733 273.408 73.9213 272.576C73.5853 271.728 73.1293 271.024 72.5533 270.464C71.9933 269.904 71.3373 269.488 70.5853 269.216C69.8493 268.928 69.0893 268.784 68.3053 268.784C67.5053 268.784 66.7373 268.928 66.0013 269.216C65.2653 269.488 64.6093 269.904 64.0333 270.464C63.4733 271.024 63.0173 271.728 62.6653 272.576C62.3293 273.408 62.1613 274.376 62.1613 275.48ZM59.7613 275.48C59.7613 274.056 60.0013 272.8 60.4813 271.712C60.9773 270.608 61.6253 269.68 62.4253 268.928C63.2253 268.176 64.1373 267.608 65.1613 267.224C66.1853 266.824 67.2333 266.624 68.3053 266.624C69.3773 266.624 70.4253 266.824 71.4493 267.224C72.4733 267.608 73.3853 268.176 74.1853 268.928C74.9853 269.68 75.6253 270.608 76.1053 271.712C76.6013 272.8 76.8493 274.056 76.8493 275.48C76.8493 276.904 76.6013 278.168 76.1053 279.272C75.6253 280.376 74.9853 281.304 74.1853 282.056C73.3853 282.808 72.4733 283.384 71.4493 283.784C70.4253 284.168 69.3773 284.36 68.3053 284.36C67.2333 284.36 66.1853 284.168 65.1613 283.784C64.1373 283.384 63.2253 282.808 62.4253 282.056C61.6253 281.304 60.9773 280.376 60.4813 279.272C60.0013 278.168 59.7613 276.904 59.7613 275.48Z" fill="white"/>
<path d="M95.0881 284L94.8721 281.6C94.6801 281.936 94.4241 282.272 94.1041 282.608C93.7841 282.928 93.3921 283.224 92.9281 283.496C92.4801 283.752 91.9601 283.96 91.3681 284.12C90.7921 284.28 90.1441 284.36 89.4241 284.36C88.3521 284.36 87.3201 284.168 86.3281 283.784C85.3361 283.4 84.4561 282.832 83.6881 282.08C82.9201 281.328 82.3041 280.4 81.8401 279.296C81.3921 278.192 81.1681 276.92 81.1681 275.48C81.1681 274.04 81.4081 272.768 81.8881 271.664C82.3681 270.56 83.0001 269.64 83.7841 268.904C84.5841 268.152 85.4881 267.584 86.4961 267.2C87.5041 266.816 88.5361 266.624 89.5921 266.624C90.5201 266.624 91.3841 266.752 92.1841 267.008C93.0001 267.248 93.7281 267.592 94.3681 268.04C95.0241 268.488 95.5841 269.032 96.0481 269.672C96.5281 270.296 96.8881 270.992 97.1281 271.76L94.9921 272.672C94.6081 271.44 93.9441 270.488 93.0001 269.816C92.0561 269.128 90.9201 268.784 89.5921 268.784C88.8241 268.784 88.0801 268.92 87.3601 269.192C86.6401 269.464 86.0001 269.88 85.4401 270.44C84.8801 271 84.4241 271.704 84.0721 272.552C83.7361 273.384 83.5681 274.36 83.5681 275.48C83.5681 276.616 83.7281 277.608 84.0481 278.456C84.3841 279.288 84.8241 279.984 85.3681 280.544C85.9281 281.104 86.5601 281.528 87.2641 281.816C87.9841 282.088 88.7281 282.224 89.4961 282.224C90.4401 282.224 91.2401 282.08 91.8961 281.792C92.5521 281.488 93.0881 281.112 93.5041 280.664C93.9201 280.216 94.2241 279.736 94.4161 279.224C94.6081 278.696 94.7201 278.216 94.7521 277.784H88.8481V275.672H96.9841V284H95.0881Z" fill="white"/>
<path d="M112.795 279.248H105.259L103.459 284H100.939L107.707 266.984H110.419L117.187 284H114.643L112.795 279.248ZM106.099 277.064H111.955L109.003 269.432L106.099 277.064Z" fill="white"/>
<path d="M91.1 61.2C83.6 61.2 77.5 55.1 77.5 47.6C77.5 40.1 83.6 34 91.1 34C98.6 34 104.7 40.1 104.7 47.6C104.7 55.1 98.6 61.2 91.1 61.2ZM91.1 39.6C86.7 39.6 83.2 43.1 83.2 47.5C83.2 51.9 86.7 55.4 91.1 55.4C95.5 55.4 99 51.9 99 47.5C99 43.2 95.4 39.6 91.1 39.6Z" fill="white"/>
<path d="M126.9 164C125.3 164 124 162.7 124 161.1V109C124 80.5 110.2 74.5 98.7 74.5H47.7001C46.1001 74.5 44.8 73.2 44.8 71.6C44.8 70 46.1001 68.7 47.7001 68.7H98.7C118.4 68.7 129.7 83.4 129.7 108.9V161C129.8 162.7 128.5 164 126.9 164Z" fill="white"/>
<path d="M47.8 125.2H15.2C13.6 125.2 12.3 123.9 12.3 122.3C12.3 120.7 13.6 119.4 15.2 119.4H47.7001C84.3 119.4 114.1 90.3 114.1 54.6V13.3C114.1 11.7 115.4 10.4 117 10.4C118.6 10.4 119.9 11.7 119.9 13.3V54.6C119.8 93.6 87.5 125.2 47.8 125.2Z" fill="white"/>
<path d="M135.4 125.2C144.9 113.2 150.5 98 150.5 81.5C150.5 59.9 140.8 40.5 125.4 27.5V35.3C137.3 47.1 144.8 63.5 144.8 81.6C144.8 93.9 141.4 105.4 135.4 115.3V125.2Z" fill="white"/>
<path d="M79.7 146.6C63.5 146.6 48.7 140.7 37.3 130.9H29C41.9 144.1 59.9 152.4 79.8 152.4C94.1 152.4 107.4 148.1 118.5 140.8V133.8C107.6 141.8 94.2 146.6 79.7 146.6Z" fill="white"/>
<path d="M79.7 10.6C40.6 10.6 8.80005 42.4 8.80005 81.5C8.80005 93.2 11.6 104.2 16.7 113.9H23.2C17.7 104.3 14.5 93.3 14.5 81.5C14.5 45.6 43.7 16.4 79.6 16.4C89.9 16.4 99.7 18.8 108.4 23.1V16.8C99.7 12.8 89.9 10.6 79.7 10.6Z" fill="white"/>
</svg>
