<svg width="16" height="16" viewBox="0 0 16 16" fill="none" xmlns="http://www.w3.org/2000/svg">
<rect width="16" height="16" fill="white"/>
<rect x="0.5" y="0.5" width="15" height="15" stroke="#C0C0C0"/>
<path d="M8.44501 2.60447L12.445 4.60446C12.6116 4.68725 12.7518 4.81488 12.8499 4.97299C12.9479 5.1311 12.9999 5.31342 13 5.49946V10.2645C12.9999 10.4505 12.9479 10.6328 12.8499 10.7909C12.7518 10.949 12.6116 11.0767 12.445 11.1594L8.44501 13.1594C8.30608 13.229 8.15287 13.2652 7.99751 13.2652C7.84216 13.2652 7.68894 13.229 7.55001 13.1594L3.55002 11.1594C3.38359 11.0756 3.2439 10.9469 3.14672 10.7879C3.04954 10.6288 2.99873 10.4458 3.00002 10.2595V5.49946C3.00012 5.31342 3.05212 5.1311 3.15016 4.97299C3.24821 4.81488 3.38842 4.68725 3.55502 4.60446L7.55501 2.60447C7.69329 2.53576 7.8456 2.5 8.00001 2.5C8.15442 2.5 8.30673 2.53576 8.44501 2.60447V2.60447Z" stroke="#C0C0C0" stroke-linecap="round" stroke-linejoin="round"/>
<path d="M3.15991 4.95923L7.9999 7.37922L12.8399 4.95923" stroke="#C0C0C0" stroke-linecap="round" stroke-linejoin="round"/>
<path d="M8 13.2594V7.37939" stroke="#C0C0C0" stroke-linecap="round" stroke-linejoin="round"/>
<path d="M5.5 3.62939L10.5 6.12939" stroke="#7EC6EA" stroke-linecap="round" stroke-linejoin="round"/>
</svg>
