<svg width="16" height="16" viewBox="0 0 16 16" fill="none" xmlns="http://www.w3.org/2000/svg">
<g clip-path="url(#clip0_523_10)">
<rect width="16" height="16" fill="white"/>
<rect width="16" height="16" fill="#BBE4DD"/>
<circle cx="8" cy="8" r="8" fill="#BBE4DD"/>
<path d="M19.7328 11.4487C19.007 12.0921 18.1069 12.5057 17.1462 12.6372C14.6799 13.0439 12.9381 12.3145 11.9457 11.1056L12.3999 11.0056C15.3113 10.4488 20.0213 9.53304 21.7245 6.92884C22.0865 6.39557 22.3382 5.79524 22.4648 5.16317C22.6383 4.3384 22.5229 3.47901 22.1378 2.72939C21.0977 0.709209 18.6042 -0.0202376 16.4876 0.0820215C15.8216 0.130105 15.1603 0.22963 14.5096 0.379709C10.7421 1.28868 8.60506 3.71335 7.90788 6.41527C7.78221 6.92175 7.70615 7.43928 7.68078 7.96052C7.4287 9.62394 6.67928 12.0509 2.72779 12.7326C0.250155 13.1416 -1.7165 12.2327 -2.7021 11.0328L-2.24791 10.9328C0.661207 10.3761 5.37348 9.46032 7.06308 6.85612C7.42626 6.32434 7.6781 5.72449 7.80342 5.09271C7.97823 4.26726 7.86271 3.40671 7.4764 2.65668C6.43856 0.638762 3.94503 -0.0929568 1.82622 0.00930226C1.16093 0.0572126 0.500357 0.15674 -0.149532 0.306989C-3.91708 1.21596 -6.05406 3.64064 -6.75125 6.34028C-7.04189 7.47186 -7.07834 8.65382 -6.85798 9.80118C-5.92915 14.5733 -1.16238 16.5207 3.42044 15.8822C5.70504 15.564 7.31743 14.7051 9.09788 12.9053C10.9851 15.4595 14.421 16.4367 17.8388 15.7799C20.966 15.1641 23.7252 13.128 24 9.69665L20.6889 9.43305C20.6376 10.1997 20.3004 10.919 19.7442 11.4487H19.7328ZM0.668026 3.55201C4.48553 2.64304 6.48853 4.84957 1.94204 6.47435C0.0639442 7.15608 -2.35237 7.55148 -3.60822 7.80372C-3.36295 5.5063 -1.48258 4.0724 0.668026 3.54974V3.55201ZM15.3203 3.62473C19.1378 2.71576 21.1408 4.92456 16.5943 6.54707C14.7185 7.2288 12.3 7.6242 11.0441 7.87871C11.2894 5.57902 13.1697 4.14512 15.3203 3.62473" fill="#7EC6EA"/>
<rect x="0.5" y="0.5" width="15" height="15" stroke="#C0C0C0"/>
</g>
<defs>
<clipPath id="clip0_523_10">
<rect width="16" height="16" fill="white"/>
</clipPath>
</defs>
</svg>
