<svg width="183" height="89" viewBox="0 0 183 89" fill="none" xmlns="http://www.w3.org/2000/svg">
<path d="M2.5 15.51C2.5 15.51 35.86 23.7599 57 20.7899C78.14 17.8199 82.1 18.7899 102.58 19.7899C123.06 20.7899 157.73 11.5299 163.35 13.8399C168.97 16.1499 176.89 17.09 180.19 17.45" stroke="#9AC1D1" stroke-width="5" stroke-linecap="round" stroke-linejoin="round"/>
<path d="M99.94 28.6799C99.94 28.6799 96.94 33.29 97.29 48.05C97.64 62.81 93.99 74.5 93 80.05C92.01 85.6 89.37 86.2 89.37 86.2H74.83" stroke="#9AC1D1" stroke-width="5" stroke-linecap="round" stroke-linejoin="round"/>
<path d="M42.34 19.7899C46.935 19.7899 50.66 16.0649 50.66 11.4699C50.66 6.8749 46.935 3.1499 42.34 3.1499C37.7449 3.1499 34.02 6.8749 34.02 11.4699C34.02 16.0649 37.7449 19.7899 42.34 19.7899Z" stroke="#9AC1D1" stroke-width="5" stroke-linecap="round" stroke-linejoin="round"/>
</svg>
