<svg width="130" height="70" viewBox="0 0 130 70" fill="none" xmlns="http://www.w3.org/2000/svg">
<path d="M101.7 19.41C106.295 19.41 110.02 15.685 110.02 11.09C110.02 6.49502 106.295 2.77002 101.7 2.77002C97.105 2.77002 93.38 6.49502 93.38 11.09C93.38 15.685 97.105 19.41 101.7 19.41Z" stroke="#9AC1D1" stroke-width="5" stroke-linecap="round" stroke-linejoin="round"/>
<path d="M4.8999 52.5801C4.8999 52.5801 -2.7001 32.7102 13.1499 42.8102C28.9999 52.9102 52.1499 67.1201 70.2899 58.2001C88.4299 49.2801 88.6899 45.9001 91.0999 37.9501C92.2781 34.1127 93.0424 30.1602 93.3799 26.1602" stroke="#9AC1D1" stroke-width="5" stroke-linecap="round" stroke-linejoin="round"/>
<path d="M101.7 30.6001C101.7 30.6001 94.07 52.6001 107.61 61.0201C121.15 69.4401 127.1 67.1201 127.1 67.1201" stroke="#9AC1D1" stroke-width="5" stroke-linecap="round" stroke-linejoin="round"/>
</svg>
