<svg width="180" height="180" viewBox="0 0 180 180" fill="none" xmlns="http://www.w3.org/2000/svg">
<circle cx="90" cy="90" r="90" fill="#7EC6EA"/>
<path d="M108.996 98.519C107.558 99.7756 105.774 100.583 103.871 100.84C98.9841 101.635 95.5327 100.21 93.5663 97.8488L94.4662 97.6535C100.235 96.5661 109.568 94.7774 112.943 89.6909C113.66 88.6494 114.159 87.4768 114.409 86.2423C114.753 84.6314 114.524 82.9528 113.761 81.4887C111.701 77.5429 106.76 76.1182 102.566 76.3179C101.246 76.4118 99.9359 76.6062 98.6466 76.8994C91.1814 78.6747 86.947 83.4105 85.5656 88.6878C85.3166 89.6771 85.1659 90.6879 85.1156 91.706C84.6161 94.9549 83.1312 99.6952 75.3015 101.027C70.3922 101.826 66.4954 100.05 64.5424 97.7067L65.4424 97.5114C71.2067 96.424 80.5438 94.6353 83.8917 89.5489C84.6113 88.5102 85.1103 87.3386 85.3586 86.1047C85.705 84.4924 85.4761 82.8116 84.7106 81.3467C82.6542 77.4053 77.7134 75.9762 73.5151 76.1759C72.1968 76.2695 70.888 76.4639 69.6002 76.7573C62.135 78.5327 57.9007 83.2685 56.5192 88.5414C55.9434 90.7515 55.8711 93.0601 56.3078 95.3011C58.1482 104.622 67.5933 108.426 76.674 107.178C81.2008 106.557 84.3957 104.879 87.9235 101.364C91.6629 106.353 98.4711 108.261 105.243 106.979C111.44 105.776 116.907 101.799 117.451 95.0969L110.891 94.5821C110.789 96.0794 110.121 97.4844 109.019 98.519H108.996ZM71.2202 83.0954C78.7844 81.32 82.7532 85.6298 73.7446 88.8032C70.0232 90.1348 65.2354 90.9071 62.747 91.3997C63.233 86.9125 66.9589 84.1118 71.2202 83.091V83.0954ZM100.253 83.2374C107.817 81.4621 111.786 85.7762 102.777 88.9453C99.0606 90.2768 94.2683 91.0491 91.7799 91.5462C92.2659 87.0545 95.9917 84.2538 100.253 83.2374Z" fill="#016373"/>
<path d="M46.0131 99.9041C44.0917 101.529 39.7404 100.916 37.8549 99.2605C35.605 97.2676 34.9436 93.4461 35.0111 89.2563C40.4603 89.527 46.3191 89.6646 51.1159 89.1542L50.3959 82.6652C46.1121 83.1401 40.6673 83.0069 35.5465 82.7673C35.821 80.4682 36.2305 78.2756 36.541 76.3804L36.6445 76.083L30.1333 75L30.0658 75.3063C29.6878 77.4012 29.2783 79.8335 28.9363 82.4077C27.2219 82.3057 25.6469 82.2391 24.135 82.2036L24 88.7281C25.2015 88.7591 26.6999 88.8257 28.4233 88.9278C28.2523 95.9272 29.6878 102.754 35.623 105.758C40.0418 107.978 46.4496 108.124 50.3554 104.871C53.1318 102.505 54.8553 98.5858 55.0848 92.5007L48.47 92.2655C48.299 96.3222 47.4396 98.7234 46.0356 99.9041" fill="#016373"/>
<path d="M153.666 77.6541C153.188 77.3257 152.661 77.0712 152.105 76.8996C148.32 75.6435 144.455 78.9812 141.188 83.433C140.603 79.1588 138.488 76.1096 133.583 76.2161C129.435 76.327 126.667 79.0522 124.741 82.6429C124.593 80.2373 124.561 78.0847 124.629 76.5401L117.609 76.2205C117.389 80.5968 118.153 88.6038 118.81 95.7053C119.391 101.919 119.935 107.369 119.791 107.658L126.595 109.234C126.595 109.038 126.595 108.852 126.595 108.679C126.526 106.579 126.592 104.477 126.793 102.385C127.176 98.1686 127.99 93.5082 129.268 89.7933C129.525 89.0254 129.808 88.2886 130.114 87.5741C131.293 84.8045 134.2 80.0021 134.362 85.8209C134.474 89.6601 133.201 94.862 132.472 97.8046C130.582 105.594 136.549 106.562 139.784 99.9617C140.842 97.7691 142.624 94.1474 144.405 90.8097C146.408 87.148 150.773 78.2489 149.9 87.9735C149.464 91.6971 148.635 95.3655 147.425 98.9187C146.408 101.968 145.242 104.591 144.333 105.883L150.08 109.828C151.353 108 152.847 104.769 154.085 101.071C155.435 97.0767 156.559 92.4608 156.883 88.5461C157.333 83.7392 156.523 79.576 153.684 77.6364" fill="#016373"/>
</svg>
