<svg width="482" height="373" viewBox="0 0 482 373" fill="none" xmlns="http://www.w3.org/2000/svg">
<g clip-path="url(#clip0_447_856)">
<path d="M550.568 291.51C531.954 307.836 508.87 318.331 484.233 321.668C420.985 331.99 376.315 313.48 350.865 282.803L362.513 280.266C437.176 266.139 557.964 242.901 601.644 176.819C610.927 163.288 617.382 148.054 620.63 132.015C625.08 111.087 622.119 89.2798 612.244 70.2584C585.57 18.9962 521.623 0.486471 467.344 3.0813C450.264 4.30142 433.304 6.82687 416.617 10.6351C319.998 33.7002 265.194 95.2264 247.315 163.787C244.092 176.639 242.142 189.772 241.491 202.998C235.026 245.207 215.807 306.791 114.471 324.09C50.9314 334.469 0.496177 311.404 -24.7798 280.958L-13.1319 278.421C61.4729 264.294 182.32 241.056 225.65 174.974C234.964 161.48 241.422 146.259 244.636 130.228C249.119 109.282 246.157 87.4453 236.25 68.4131C209.634 17.2086 145.687 -1.35878 91.3498 1.23604C74.2883 2.45177 57.3479 4.97729 40.6814 8.78985C-55.9379 31.855 -110.741 93.3812 -128.621 161.885C-136.074 190.598 -137.009 220.591 -131.358 249.705C-107.538 370.797 14.7067 420.214 132.234 404.011C190.823 395.938 232.173 374.141 277.833 328.472C326.23 393.285 414.346 418.08 501.996 401.416C582.192 385.789 652.953 334.123 660 247.052L575.087 240.364C573.77 259.816 565.124 278.07 550.859 291.51H550.568ZM61.6478 91.1323C159.548 68.0672 210.915 124.058 94.32 165.287C46.156 182.586 -15.8108 192.619 -48.0172 199.019C-41.7274 140.722 6.495 104.337 61.6478 91.0747V91.1323ZM437.409 92.9775C535.309 69.9124 586.676 125.961 470.081 167.132C421.975 184.431 359.95 194.464 327.744 200.922C334.034 142.568 382.256 106.182 437.409 92.9775" fill="#7EC6EA"/>
</g>
<defs>
<clipPath id="clip0_447_856">
<rect width="482" height="373" fill="white"/>
</clipPath>
</defs>
</svg>
