<svg width="374" height="93" viewBox="0 0 374 93" fill="none" xmlns="http://www.w3.org/2000/svg">
<path d="M347 58C359.15 58 369 47.9265 369 35.5001C369 23.0736 359.15 13 347 13C334.85 13 325 23.0736 325 35.5001C325 47.9265 334.85 58 347 58Z" stroke="white" stroke-width="10" stroke-linecap="round" stroke-linejoin="round"/>
<path d="M7.01394 35.5727C7.01394 28.8067 -1.04182 6.5412 15.0697 8.32029C31.1812 10.0994 73.5813 64.4156 119.795 46.6247C166.008 28.8338 171.217 11.5819 196.942 8.23934C222.667 4.89681 247.505 37.3248 267 58" stroke="white" stroke-width="10" stroke-linecap="round" stroke-linejoin="round"/>
<path d="M280.192 13.5482C280.192 13.5482 264.661 -5.68522 267.303 13.5482C269.944 32.7816 298.151 82.6589 329 88" stroke="white" stroke-width="10" stroke-linecap="round" stroke-linejoin="round"/>
</svg>
