<svg width="134" height="245" viewBox="0 0 134 245" fill="none" xmlns="http://www.w3.org/2000/svg">
<path d="M96.6665 146.398C109.346 146.398 119.626 136.119 119.626 123.439C119.626 110.759 109.346 100.48 96.6665 100.48C83.9866 100.48 73.7075 110.759 73.7075 123.439C73.7075 136.119 83.9866 146.398 96.6665 146.398Z" stroke="white" stroke-width="10" stroke-linecap="round" stroke-linejoin="round"/>
<path d="M96.6662 70.4846C96.6662 70.4846 88.6636 9.44458 47.6575 5.77445C6.65147 2.10432 -1.57181 10.9623 9.46617 43.4691C20.5041 75.976 49.5616 103.295 46.8297 158.899C44.0978 214.503 41.3107 227.417 41.3107 227.417L73.7623 236.358" stroke="white" stroke-width="10" stroke-linecap="round" stroke-linejoin="round"/>
<path d="M114.162 170.737L122.385 233.626L128.759 240" stroke="white" stroke-width="10" stroke-linecap="round" stroke-linejoin="round"/>
</svg>
