<svg width="1716" height="905" viewBox="0 0 1716 905" fill="none" xmlns="http://www.w3.org/2000/svg">
<path d="M4.5 244C83.5 415.5 1121.5 390.462 1225.5 319.5C1308.7 262.73 1375.96 311.513 1399.19 343C1425.1 383.271 1494.17 462.95 1563.24 459.499C1649.58 455.184 1679.8 437.925 1653.9 403.407C1627.99 368.889 1576.19 343 1563.24 390.462C1550.29 437.925 1541.65 558.738 1623.68 597.571C1705.7 636.404 1735.92 709.755 1688.43 739.958C1640.95 770.162 1610.73 895.29 1528.7 899.604C1446.68 903.919 1278.32 873.716 1274 770.162C1271.67 744.274 1247.9 692.9 1171.5 694.5C1076 696.5 659 875.642 536 597.571C413 319.5 292 87.5 18 5" stroke="#7EC6EA" stroke-width="9"/>
</svg>
