<svg width="1419" height="617" viewBox="0 0 1419 617" fill="none" xmlns="http://www.w3.org/2000/svg">
<mask id="mask0_386_25" style="mask-type:alpha" maskUnits="userSpaceOnUse" x="0" y="0" width="1419" height="617">
<rect width="1419" height="617" fill="#C4C4C4"/>
</mask>
<g mask="url(#mask0_386_25)">
<path d="M1376.37 488.715C1335.23 524.665 1284.2 547.775 1229.75 555.123C1089.94 577.852 991.205 537.093 934.949 469.542L960.696 463.955C1125.73 432.846 1392.72 381.675 1489.27 236.161C1509.79 206.364 1524.06 172.819 1531.24 137.501C1541.07 91.4158 1534.53 43.3955 1512.7 1.50963C1453.74 -111.372 1312.39 -152.131 1192.41 -146.417C1154.66 -143.73 1117.17 -138.169 1080.29 -129.783C866.721 -78.9929 745.585 56.4901 706.064 207.464C698.94 235.765 694.629 264.683 693.191 293.808C678.902 386.754 636.42 522.364 412.427 560.457C271.98 583.312 160.499 532.522 104.629 465.479L130.376 459.892C295.281 428.783 562.4 377.611 658.176 232.097C678.763 202.383 693.039 168.866 700.143 133.564C710.052 87.4403 703.504 39.3559 681.605 -2.55369C622.775 -115.308 481.427 -156.194 361.321 -150.48C323.608 -147.803 286.163 -142.242 249.324 -133.846C35.7578 -83.0562 -85.3789 52.427 -124.9 203.274C-141.375 266.503 -143.441 332.547 -130.95 396.658C-78.2982 663.307 191.91 772.125 451.691 736.445C581.195 718.668 672.594 670.671 773.52 570.106C880.496 712.827 1075.27 767.426 1269.01 730.731C1446.27 696.32 1602.68 582.55 1618.26 390.817L1430.57 376.088C1427.66 418.923 1408.54 459.119 1377.01 488.715H1376.37ZM295.668 47.4747C512.066 -3.31551 625.607 119.978 367.886 210.766C261.425 248.858 124.454 270.952 53.2656 285.046C67.1686 156.674 173.759 76.5524 295.668 47.348V47.4747ZM1126.24 51.5381C1342.64 0.747805 1456.18 124.168 1198.46 214.829C1092.13 252.922 955.032 275.015 883.843 289.236C897.746 160.737 1004.34 80.6155 1126.24 51.5381" fill="#7EC6EA"/>
</g>
</svg>
