<svg width="1583" height="875" viewBox="0 0 1583 875" fill="none" xmlns="http://www.w3.org/2000/svg">
<path fill-rule="evenodd" clip-rule="evenodd" d="M14.0784 0.180762C17.8454 1.04994 20.1945 4.80833 19.3254 8.57535C9.37418 51.7035 11.5722 126.656 41.4873 200.419C71.3023 273.934 128.47 345.862 228.161 383.963C278.962 403.378 341.453 397.763 411.228 384.823C433.037 380.778 455.569 376.012 478.564 371.149C528.373 360.613 580.357 349.617 631.886 344.495C707.545 336.974 783.722 341.868 853.754 379.443C923.861 417.058 986.827 486.889 1037.12 607.304C1086.69 725.983 1143.15 796.161 1199.64 831.349C1255.81 866.334 1312.63 867.136 1364.53 845.718C1416.72 824.183 1464.22 780.024 1500.46 724.779C1536.68 669.578 1561.33 603.814 1568.2 539.755C1568.61 535.911 1572.06 533.129 1575.91 533.541C1579.75 533.954 1582.53 537.404 1582.12 541.248C1574.99 607.689 1549.51 675.551 1512.17 732.459C1474.86 789.323 1425.38 835.758 1369.87 858.66C1314.08 881.68 1252.49 880.762 1192.24 843.232C1132.31 805.904 1074.35 732.77 1024.2 612.699C974.777 494.364 913.661 427.473 847.135 391.779C780.535 356.046 707.53 351.044 633.271 358.426C582.504 363.473 531.847 374.193 482.435 384.649C459.237 389.558 436.313 394.41 413.78 398.588C343.978 411.533 277.97 417.987 223.163 397.04C119.233 357.32 59.5225 282.139 28.5137 205.68C-2.39496 129.468 -4.96559 51.5818 5.68378 5.42776C6.55296 1.66074 10.3113 -0.688421 14.0784 0.180762Z" fill="#C4BADD"/>
</svg>
