<svg width="1171" height="548" viewBox="0 0 1171 548" fill="none" xmlns="http://www.w3.org/2000/svg">
<path fill-rule="evenodd" clip-rule="evenodd" d="M0.557696 392C32.8844 403.826 63.3019 415.626 90.4039 426.897C107.24 433.899 122.779 440.689 136.691 447.147C135.716 464.478 136.185 480.791 137.007 494.764C138.328 517.21 147.571 531.99 160.235 540.054C172.735 548.012 187.967 549.038 200.691 545.25C213.328 541.488 224.415 532.638 227.343 519.907C230.314 506.989 224.46 492.053 207.47 477.12C198.841 469.535 183.996 460.574 164.748 450.756C158.941 447.794 152.703 444.739 146.075 441.605C147.552 422.145 151.008 401.748 157.973 382.279C171.661 344.016 198.899 309.295 251.875 292.285C269.588 286.597 286.515 281.685 302.798 276.96L302.809 276.957C311.539 274.423 320.084 271.944 328.465 269.427C352.377 262.248 374.785 254.814 395.526 245.141C437.22 225.697 472 197.278 499.497 144.066C526.336 92.1272 567.046 27.3458 662.949 12.2579C759.433 -2.9214 912.879 31.9756 1165.68 183.857L1170.32 176.143C917.12 24.0246 761.316 -12.3285 661.55 3.36725C561.203 19.1544 518.663 87.3729 491.502 139.934C464.999 191.222 431.779 218.304 391.723 236.984C371.589 246.374 349.685 253.659 325.877 260.807C317.653 263.277 309.179 265.736 300.48 268.261L300.475 268.262C284.107 273.012 266.939 277.995 249.124 283.716C193.1 301.705 163.986 338.752 149.499 379.248C142.621 398.473 139.039 418.464 137.376 437.55C124.134 431.46 109.537 425.107 93.8599 418.587C73.1001 409.954 50.4191 401.017 26.441 392H0.557696ZM145.992 494.236C145.237 481.402 144.8 466.758 145.493 451.294C150.834 453.848 155.897 456.344 160.659 458.773C179.826 468.551 193.803 477.09 201.529 483.88C217.248 497.697 220.499 509.512 218.572 517.89C216.602 526.456 208.788 533.449 198.123 536.625C187.544 539.774 175.073 538.832 165.069 532.462C155.231 526.198 147.171 514.291 145.992 494.236Z" fill="#7EC6EA"/>
</svg>
