<svg width="548" height="581" viewBox="0 0 548 581" fill="none" xmlns="http://www.w3.org/2000/svg">
<path fill-rule="evenodd" clip-rule="evenodd" d="M239.831 1.78681C238.057 -0.328968 234.903 -0.60561 232.787 1.16892C230.671 2.94344 230.395 6.09715 232.169 8.21293C251.696 31.4945 269.248 52.9526 282.008 73.533C294.77 94.116 302.425 113.341 302.688 132.132C302.987 153.517 293.644 175.464 268.921 198.988V212.488C300.073 185.387 313.066 159.092 312.687 131.992C312.388 110.597 303.699 89.54 290.507 68.2636C277.314 46.9847 259.305 25.0053 239.831 1.78681Z" fill="#FFF5AD"/>
<path d="M5.5 443C28 495 47 589 152 574C257 559 282.5 443 369 443C438.2 443 513.5 503 542.5 533" stroke="#C2D6DF" stroke-width="10" stroke-linecap="round"/>
</svg>
