<svg width="532" height="388" viewBox="0 0 532 388" fill="none" xmlns="http://www.w3.org/2000/svg">
<path fill-rule="evenodd" clip-rule="evenodd" d="M253.999 172.243C255.828 186.009 257.605 200.449 256.745 214.319C255.69 231.314 250.687 247.043 237.155 259.165C223.547 271.356 200.876 280.297 163.619 282.655C126.385 285.011 74.9173 280.77 4.1078 266.942C2.48167 266.625 0.905986 267.685 0.58841 269.311C0.270848 270.938 1.33165 272.513 2.95778 272.831C74.0107 286.707 126.042 291.045 163.998 288.643C201.931 286.242 226.142 277.087 241.159 263.634C256.253 250.112 261.619 232.648 262.733 214.691C263.684 199.37 261.547 183.391 259.614 168.942L259.614 168.941C259.487 167.994 259.361 167.053 259.237 166.119C257.535 168.198 255.789 170.24 253.999 172.243Z" fill="#FFF5AD"/>
<path fill-rule="evenodd" clip-rule="evenodd" d="M242.753 80.996C259.673 72.1189 280.069 70.3098 293.677 71.4232C295.329 71.5583 296.777 70.3291 296.912 68.6778C297.047 67.0264 295.818 65.5782 294.166 65.4431C279.803 64.2681 258.183 66.1249 239.966 75.6829C221.539 85.3506 206.671 102.897 206.43 132.529C206.275 151.481 218.355 172.389 237.789 192.374C257.328 212.467 284.751 232.099 316.329 248.52C379.409 281.324 459.764 301.665 527.951 286.667C529.569 286.312 530.592 284.711 530.236 283.093C529.881 281.475 528.28 280.452 526.662 280.808C460.348 295.394 381.475 275.635 319.097 243.197C287.946 226.998 261.084 207.723 242.091 188.191C222.993 168.552 212.295 149.117 212.429 132.577C212.65 105.421 226.042 89.7633 242.753 80.996Z" fill="#E2D7FC"/>
</svg>
