<svg width="596" height="521" viewBox="0 0 596 521" fill="none" xmlns="http://www.w3.org/2000/svg">
<path fill-rule="evenodd" clip-rule="evenodd" d="M32.8477 411.375C41.6038 430.905 54.2045 452.439 72.283 476.63C94.1993 505.956 118.574 518.723 143.03 520.672C167.252 522.602 190.734 513.854 210.971 501.81C231.25 489.741 248.712 474.102 261.056 461.56C267.243 455.275 272.177 449.733 275.572 445.754C277.271 443.764 278.585 442.162 279.481 441.051C279.929 440.495 280.272 440.062 280.506 439.764C280.623 439.616 280.713 439.5 280.775 439.421L280.847 439.328L280.873 439.294C280.875 439.291 280.876 439.289 276.909 436.246L280.876 439.289C282.557 437.098 282.144 433.96 279.953 432.279C277.762 430.598 274.623 431.011 272.942 433.202L272.941 433.204L272.93 433.219L272.875 433.289C272.845 433.327 272.805 433.379 272.755 433.443C272.722 433.485 272.685 433.533 272.643 433.586C272.434 433.852 272.116 434.253 271.696 434.775C270.854 435.819 269.598 437.349 267.965 439.263C264.697 443.094 259.923 448.456 253.93 454.545C241.914 466.753 225.128 481.747 205.857 493.216C186.544 504.71 165.173 512.405 143.825 510.703C122.711 509.021 100.797 498.08 80.2932 470.643C60.8731 444.658 48.0302 421.972 39.5551 401.705C37.3967 404.985 35.16 408.209 32.8477 411.375Z" fill="#FFF5AD"/>
<path d="M97.5752 430.663C-52.2494 182.016 156.96 61.8036 296.308 87.9438C435.656 114.084 477.46 87.9438 526.96 51.3046" stroke="#C6DFEA" stroke-width="10" stroke-linecap="round" stroke-linejoin="round"/>
</svg>
