<svg width="350" height="352" viewBox="0 0 350 352" fill="none" xmlns="http://www.w3.org/2000/svg">
<path fill-rule="evenodd" clip-rule="evenodd" d="M253.599 186.965C252.126 189.223 250.648 191.539 249.165 193.914C232.198 221.086 229.601 244.842 235.694 265.164C241.745 285.35 256.23 301.672 272.518 314.396C288.829 327.138 307.191 336.461 321.42 342.589C328.546 345.657 334.661 347.936 339.001 349.45C341.172 350.207 342.901 350.773 344.092 351.152C344.687 351.341 345.148 351.483 345.463 351.579C345.621 351.627 345.742 351.663 345.825 351.688L345.92 351.716L345.946 351.724L345.954 351.726C345.956 351.727 345.958 351.727 346.797 348.847L345.958 351.727C347.548 352.191 349.214 351.277 349.677 349.686C350.141 348.096 349.227 346.43 347.637 345.967L347.637 345.967L347.633 345.966L347.615 345.96L347.536 345.937C347.465 345.916 347.355 345.883 347.209 345.838C346.917 345.75 346.48 345.615 345.909 345.433C344.767 345.07 343.091 344.522 340.977 343.785C336.747 342.31 330.767 340.081 323.793 337.078C309.823 331.061 291.969 321.977 276.212 309.668C260.432 297.341 246.996 281.97 241.441 263.441C235.926 245.046 238.037 223.063 254.254 197.092C256.004 194.29 257.746 191.573 259.48 188.939C257.485 188.358 255.524 187.699 253.599 186.965Z" fill="#FFF5AD"/>
<path d="M276.095 238.884C359.201 100.962 243.155 34.2818 165.86 48.7815C88.5648 63.2812 65.3767 48.7815 37.9194 28.4581" stroke="#C6DFEA" stroke-width="6" stroke-linecap="round" stroke-linejoin="round"/>
</svg>
