<svg width="657" height="70" viewBox="0 0 657 70" fill="none" xmlns="http://www.w3.org/2000/svg">
<path d="M21.7879 44.98C21.8612 45.9333 22.2279 46.795 22.8879 47.565C23.5845 48.2983 24.6479 48.665 26.0779 48.665C27.1412 48.665 27.9295 48.4266 28.4429 47.95C28.9929 47.4733 29.2679 46.9233 29.2679 46.3C29.2679 45.7866 29.0662 45.3466 28.6629 44.98C28.2962 44.5766 27.5995 44.265 26.5729 44.045L23.4379 43.33C21.9712 43 20.7245 42.56 19.6979 42.01C18.6712 41.46 17.8279 40.8183 17.1679 40.085C16.5079 39.3516 16.0312 38.545 15.7379 37.665C15.4445 36.785 15.2979 35.8683 15.2979 34.915C15.2979 33.6683 15.5545 32.495 16.0679 31.395C16.5812 30.295 17.2962 29.3416 18.2129 28.535C19.1662 27.6916 20.2845 27.0316 21.5679 26.555C22.8512 26.0783 24.2629 25.84 25.8029 25.84C27.7829 25.84 29.4512 26.115 30.8079 26.665C32.1645 27.215 33.2645 27.9116 34.1079 28.755C34.9879 29.5616 35.6295 30.4416 36.0329 31.395C36.4362 32.3116 36.6745 33.1733 36.7479 33.98L29.8179 35.245C29.7079 34.3283 29.3412 33.54 28.7179 32.88C28.1312 32.22 27.1962 31.89 25.9129 31.89C25.1062 31.89 24.4095 32.11 23.8229 32.55C23.2362 32.9533 22.9429 33.5216 22.9429 34.255C22.9429 34.8416 23.1445 35.3 23.5479 35.63C23.9512 35.96 24.4645 36.18 25.0879 36.29L28.7179 37.005C31.5779 37.5916 33.6862 38.6733 35.0429 40.25C36.4362 41.79 37.1329 43.5683 37.1329 45.585C37.1329 46.7583 36.9129 47.895 36.4729 48.995C36.0329 50.095 35.3545 51.085 34.4379 51.965C33.5212 52.8083 32.3845 53.4866 31.0279 54C29.6712 54.55 28.0762 54.825 26.2429 54.825C24.0795 54.825 22.2645 54.5316 20.7979 53.945C19.3679 53.3216 18.2129 52.57 17.3329 51.69C16.4529 50.81 15.7929 49.875 15.3529 48.885C14.9495 47.895 14.7295 47.015 14.6929 46.245L21.7879 44.98Z" fill="black"/>
<path d="M60.9037 54C60.8303 53.7433 60.7753 53.3216 60.7387 52.735C60.702 52.1116 60.6837 51.6166 60.6837 51.25C59.9503 52.4233 58.887 53.285 57.4937 53.835C56.137 54.3483 54.762 54.605 53.3687 54.605C51.7187 54.605 50.2337 54.33 48.9137 53.78C47.6303 53.1933 46.5487 52.4233 45.6687 51.47C44.7887 50.48 44.1103 49.3433 43.6337 48.06C43.1937 46.7766 42.9737 45.4016 42.9737 43.935V26.665H51.3337V42.175C51.3337 43.495 51.682 44.6133 52.3787 45.53C53.112 46.4466 54.2303 46.905 55.7337 46.905C57.127 46.905 58.227 46.4833 59.0337 45.64C59.877 44.76 60.2987 43.6233 60.2987 42.23V26.665H68.6587V49.105C68.6587 50.3516 68.6953 51.4333 68.7687 52.35C68.842 53.23 68.897 53.78 68.9337 54H60.9037Z" fill="black"/>
<path d="M84.5838 54H76.2238V26.665H84.3088V29.8C84.6754 29.14 85.1521 28.5716 85.7388 28.095C86.3254 27.6183 86.9488 27.2333 87.6088 26.94C88.3054 26.61 89.0204 26.3716 89.7538 26.225C90.5238 26.0416 91.2571 25.95 91.9538 25.95C93.6771 25.95 95.1621 26.2433 96.4088 26.83C97.6554 27.38 98.6821 28.15 99.4888 29.14C100.332 30.13 100.937 31.285 101.304 32.605C101.707 33.925 101.909 35.3366 101.909 36.84V54H93.5488V38.27C93.5488 36.9133 93.1821 35.795 92.4488 34.915C91.7521 33.9983 90.6338 33.54 89.0938 33.54C87.7004 33.54 86.6004 33.9983 85.7938 34.915C84.9871 35.795 84.5838 36.9316 84.5838 38.325V54Z" fill="black"/>
<path d="M122.462 54V26.665H130.437V29.8C130.767 29.2133 131.225 28.6816 131.812 28.205C132.399 27.6916 133.04 27.27 133.737 26.94C134.47 26.5733 135.222 26.2983 135.992 26.115C136.799 25.9316 137.569 25.84 138.302 25.84C140.282 25.84 141.95 26.225 143.307 26.995C144.664 27.7283 145.69 28.7733 146.387 30.13C147.45 28.59 148.66 27.49 150.017 26.83C151.374 26.17 152.987 25.84 154.857 25.84C156.14 25.84 157.387 26.0416 158.597 26.445C159.844 26.8116 160.925 27.4166 161.842 28.26C162.795 29.1033 163.547 30.185 164.097 31.505C164.684 32.825 164.977 34.42 164.977 36.29V54H156.892V38.16C156.892 36.8766 156.544 35.795 155.847 34.915C155.15 33.9983 154.05 33.54 152.547 33.54C151.044 33.54 149.907 34.0166 149.137 34.97C148.367 35.9233 147.982 37.005 147.982 38.215V54H139.732V38.16C139.732 36.8766 139.384 35.795 138.687 34.915C137.99 33.9983 136.872 33.54 135.332 33.54C133.865 33.54 132.747 34.0166 131.977 34.97C131.207 35.9233 130.822 37.0233 130.822 38.27V54H122.462Z" fill="black"/>
<path d="M185.282 47.125C186.089 47.125 186.859 46.9966 187.592 46.74C188.326 46.4466 188.967 46.025 189.517 45.475C190.104 44.8883 190.562 44.1733 190.892 43.33C191.259 42.4866 191.442 41.4783 191.442 40.305C191.442 39.1683 191.259 38.1783 190.892 37.335C190.562 36.455 190.104 35.74 189.517 35.19C188.967 34.64 188.326 34.2366 187.592 33.98C186.859 33.6866 186.089 33.54 185.282 33.54C184.512 33.54 183.742 33.6866 182.972 33.98C182.239 34.2366 181.579 34.64 180.992 35.19C180.442 35.74 179.984 36.455 179.617 37.335C179.287 38.1783 179.122 39.1683 179.122 40.305C179.122 41.4416 179.287 42.45 179.617 43.33C179.984 44.1733 180.442 44.8883 180.992 45.475C181.579 46.025 182.239 46.4466 182.972 46.74C183.742 46.9966 184.512 47.125 185.282 47.125ZM185.282 25.84C187.336 25.84 189.242 26.2066 191.002 26.94C192.762 27.6366 194.284 28.6266 195.567 29.91C196.887 31.1933 197.914 32.715 198.647 34.475C199.417 36.235 199.802 38.1783 199.802 40.305C199.802 42.4316 199.417 44.3933 198.647 46.19C197.914 47.95 196.887 49.4716 195.567 50.755C194.284 52.0383 192.762 53.0466 191.002 53.78C189.242 54.4766 187.336 54.825 185.282 54.825C183.229 54.825 181.322 54.4766 179.562 53.78C177.802 53.0466 176.262 52.0383 174.942 50.755C173.659 49.4716 172.632 47.95 171.862 46.19C171.129 44.3933 170.762 42.4316 170.762 40.305C170.762 38.1783 171.129 36.235 171.862 34.475C172.632 32.715 173.659 31.1933 174.942 29.91C176.262 28.6266 177.802 27.6366 179.562 26.94C181.322 26.2066 183.229 25.84 185.282 25.84Z" fill="black"/>
<path d="M218.741 47.125C219.548 47.125 220.318 46.9966 221.051 46.74C221.784 46.4466 222.426 46.025 222.976 45.475C223.563 44.8883 224.021 44.1733 224.351 43.33C224.718 42.4866 224.901 41.4783 224.901 40.305C224.901 39.1683 224.718 38.1783 224.351 37.335C224.021 36.455 223.563 35.74 222.976 35.19C222.426 34.64 221.784 34.2366 221.051 33.98C220.318 33.6866 219.548 33.54 218.741 33.54C217.971 33.54 217.201 33.6866 216.431 33.98C215.698 34.2366 215.038 34.64 214.451 35.19C213.901 35.74 213.443 36.455 213.076 37.335C212.746 38.1783 212.581 39.1683 212.581 40.305C212.581 41.4416 212.746 42.45 213.076 43.33C213.443 44.1733 213.901 44.8883 214.451 45.475C215.038 46.025 215.698 46.4466 216.431 46.74C217.201 46.9966 217.971 47.125 218.741 47.125ZM218.741 25.84C220.794 25.84 222.701 26.2066 224.461 26.94C226.221 27.6366 227.743 28.6266 229.026 29.91C230.346 31.1933 231.373 32.715 232.106 34.475C232.876 36.235 233.261 38.1783 233.261 40.305C233.261 42.4316 232.876 44.3933 232.106 46.19C231.373 47.95 230.346 49.4716 229.026 50.755C227.743 52.0383 226.221 53.0466 224.461 53.78C222.701 54.4766 220.794 54.825 218.741 54.825C216.688 54.825 214.781 54.4766 213.021 53.78C211.261 53.0466 209.721 52.0383 208.401 50.755C207.118 49.4716 206.091 47.95 205.321 46.19C204.588 44.3933 204.221 42.4316 204.221 40.305C204.221 38.1783 204.588 36.235 205.321 34.475C206.091 32.715 207.118 31.1933 208.401 29.91C209.721 28.6266 211.261 27.6366 213.021 26.94C214.781 26.2066 216.688 25.84 218.741 25.84Z" fill="black"/>
<path d="M247.579 54H239.219V26.665H247.304V29.8C247.671 29.14 248.148 28.5716 248.734 28.095C249.321 27.6183 249.944 27.2333 250.604 26.94C251.301 26.61 252.016 26.3716 252.749 26.225C253.519 26.0416 254.253 25.95 254.949 25.95C256.673 25.95 258.158 26.2433 259.404 26.83C260.651 27.38 261.678 28.15 262.484 29.14C263.328 30.13 263.933 31.285 264.299 32.605C264.703 33.925 264.904 35.3366 264.904 36.84V54H256.544V38.27C256.544 36.9133 256.178 35.795 255.444 34.915C254.748 33.9983 253.629 33.54 252.089 33.54C250.696 33.54 249.596 33.9983 248.789 34.915C247.983 35.795 247.579 36.9316 247.579 38.325V54Z" fill="black"/>
<path d="M283.973 46.465C283.973 45.255 284.174 44.1733 284.578 43.22C285.018 42.2666 285.604 41.46 286.338 40.8C287.071 40.1033 287.914 39.5533 288.868 39.15C289.858 38.71 290.921 38.3983 292.058 38.215L298.493 37.225C299.226 37.115 299.739 36.895 300.033 36.565C300.326 36.235 300.473 35.8316 300.473 35.355C300.473 34.5483 300.124 33.8516 299.428 33.265C298.768 32.6783 297.778 32.385 296.458 32.385C294.991 32.385 293.854 32.8066 293.048 33.65C292.278 34.4566 291.856 35.3733 291.783 36.4L284.523 34.915C284.596 33.925 284.889 32.8983 285.403 31.835C285.916 30.7716 286.649 29.8 287.603 28.92C288.593 28.04 289.821 27.3066 291.288 26.72C292.754 26.1333 294.496 25.84 296.513 25.84C298.713 25.84 300.583 26.1333 302.123 26.72C303.663 27.27 304.909 28.04 305.863 29.03C306.853 29.9833 307.549 31.1016 307.953 32.385C308.393 33.6683 308.613 35.0066 308.613 36.4V49.765C308.613 50.8283 308.649 51.7633 308.723 52.57C308.833 53.3766 308.906 53.8533 308.943 54H301.408C301.371 53.89 301.316 53.5966 301.243 53.12C301.169 52.6066 301.133 51.8733 301.133 50.92C300.399 52.0933 299.391 53.0283 298.108 53.725C296.824 54.4216 295.266 54.77 293.433 54.77C291.929 54.77 290.591 54.5316 289.418 54.055C288.244 53.615 287.254 53.01 286.448 52.24C285.641 51.47 285.018 50.59 284.578 49.6C284.174 48.61 283.973 47.565 283.973 46.465ZM295.468 48.72C296.091 48.72 296.696 48.6466 297.283 48.5C297.906 48.3166 298.438 48.0233 298.878 47.62C299.354 47.18 299.739 46.6116 300.033 45.915C300.326 45.2183 300.473 44.3383 300.473 43.275V42.065L295.303 42.89C294.423 43.0366 293.689 43.3483 293.103 43.825C292.516 44.265 292.223 44.9616 292.223 45.915C292.223 46.6483 292.461 47.3083 292.938 47.895C293.451 48.445 294.294 48.72 295.468 48.72Z" fill="black"/>
<path d="M333.563 54C333.49 53.7433 333.435 53.3216 333.398 52.735C333.362 52.1116 333.343 51.6166 333.343 51.25C332.61 52.4233 331.547 53.285 330.154 53.835C328.797 54.3483 327.422 54.605 326.029 54.605C324.379 54.605 322.893 54.33 321.573 53.78C320.29 53.1933 319.208 52.4233 318.328 51.47C317.448 50.48 316.77 49.3433 316.293 48.06C315.853 46.7766 315.633 45.4016 315.633 43.935V26.665H323.993V42.175C323.993 43.495 324.342 44.6133 325.038 45.53C325.772 46.4466 326.89 46.905 328.393 46.905C329.787 46.905 330.887 46.4833 331.693 45.64C332.537 44.76 332.958 43.6233 332.958 42.23V26.665H341.318V49.105C341.318 50.3516 341.355 51.4333 341.428 52.35C341.502 53.23 341.557 53.78 341.593 54H333.563Z" fill="black"/>
<path d="M359.774 33.705V54H351.414V33.705H347.069V26.665H351.414V24.3C351.414 22.7233 351.634 21.2933 352.074 20.01C352.55 18.7266 353.229 17.6266 354.109 16.71C355.025 15.7566 356.125 15.0233 357.409 14.51C358.729 13.9966 360.214 13.74 361.864 13.74C362.707 13.74 363.477 13.795 364.174 13.905C364.87 14.015 365.42 14.1616 365.824 14.345V21.165C365.604 21.0916 365.292 21.0366 364.889 21C364.522 20.9266 364.009 20.89 363.349 20.89C362.982 20.89 362.579 20.945 362.139 21.055C361.735 21.1283 361.35 21.3116 360.984 21.605C360.654 21.8616 360.36 22.2283 360.104 22.705C359.884 23.1816 359.774 23.805 359.774 24.575V26.665H365.714V33.705H359.774Z" fill="black"/>
<path d="M382.93 54V26.665H391.29V54H382.93ZM382.215 18.305C382.215 17.645 382.343 17.0216 382.6 16.435C382.856 15.8116 383.205 15.28 383.645 14.84C384.085 14.4 384.598 14.0516 385.185 13.795C385.771 13.5383 386.395 13.41 387.055 13.41C388.448 13.41 389.621 13.8866 390.575 14.84C391.528 15.7933 392.005 16.9483 392.005 18.305C392.005 19.6616 391.528 20.8166 390.575 21.77C389.621 22.7233 388.448 23.2 387.055 23.2C386.395 23.2 385.771 23.0716 385.185 22.815C384.598 22.5583 384.085 22.21 383.645 21.77C383.205 21.33 382.856 20.8166 382.6 20.23C382.343 19.6066 382.215 18.965 382.215 18.305Z" fill="black"/>
<path d="M407.185 54H398.825V26.665H406.91V29.8C407.276 29.14 407.753 28.5716 408.34 28.095C408.926 27.6183 409.55 27.2333 410.21 26.94C410.906 26.61 411.621 26.3716 412.355 26.225C413.125 26.0416 413.858 25.95 414.555 25.95C416.278 25.95 417.763 26.2433 419.01 26.83C420.256 27.38 421.283 28.15 422.09 29.14C422.933 30.13 423.538 31.285 423.905 32.605C424.308 33.925 424.51 35.3366 424.51 36.84V54H416.15V38.27C416.15 36.9133 415.783 35.795 415.05 34.915C414.353 33.9983 413.235 33.54 411.695 33.54C410.301 33.54 409.201 33.9983 408.395 34.915C407.588 35.795 407.185 36.9316 407.185 38.325V54Z" fill="black"/>
<path d="M437.245 44.98C437.318 45.9333 437.685 46.795 438.345 47.565C439.041 48.2983 440.105 48.665 441.535 48.665C442.598 48.665 443.386 48.4266 443.9 47.95C444.45 47.4733 444.725 46.9233 444.725 46.3C444.725 45.7866 444.523 45.3466 444.12 44.98C443.753 44.5766 443.056 44.265 442.03 44.045L438.895 43.33C437.428 43 436.181 42.56 435.155 42.01C434.128 41.46 433.285 40.8183 432.625 40.085C431.965 39.3516 431.488 38.545 431.195 37.665C430.901 36.785 430.755 35.8683 430.755 34.915C430.755 33.6683 431.011 32.495 431.525 31.395C432.038 30.295 432.753 29.3416 433.67 28.535C434.623 27.6916 435.741 27.0316 437.025 26.555C438.308 26.0783 439.72 25.84 441.26 25.84C443.24 25.84 444.908 26.115 446.265 26.665C447.621 27.215 448.721 27.9116 449.565 28.755C450.445 29.5616 451.086 30.4416 451.49 31.395C451.893 32.3116 452.131 33.1733 452.205 33.98L445.275 35.245C445.165 34.3283 444.798 33.54 444.175 32.88C443.588 32.22 442.653 31.89 441.37 31.89C440.563 31.89 439.866 32.11 439.28 32.55C438.693 32.9533 438.4 33.5216 438.4 34.255C438.4 34.8416 438.601 35.3 439.005 35.63C439.408 35.96 439.921 36.18 440.545 36.29L444.175 37.005C447.035 37.5916 449.143 38.6733 450.5 40.25C451.893 41.79 452.59 43.5683 452.59 45.585C452.59 46.7583 452.37 47.895 451.93 48.995C451.49 50.095 450.811 51.085 449.895 51.965C448.978 52.8083 447.841 53.4866 446.485 54C445.128 54.55 443.533 54.825 441.7 54.825C439.536 54.825 437.721 54.5316 436.255 53.945C434.825 53.3216 433.67 52.57 432.79 51.69C431.91 50.81 431.25 49.875 430.81 48.885C430.406 47.895 430.186 47.015 430.15 46.245L437.245 44.98Z" fill="black"/>
<path d="M469.375 26.665H474.71V33.98H469.375V44.21C469.375 45.3466 469.651 46.1166 470.201 46.52C470.751 46.8866 471.484 47.07 472.4 47.07C472.84 47.07 473.244 47.0516 473.61 47.015C474.014 46.9416 474.344 46.8683 474.6 46.795V53.725C474.417 53.7983 473.977 53.945 473.28 54.165C472.584 54.385 471.575 54.495 470.255 54.495C467.395 54.495 465.159 53.725 463.545 52.185C461.932 50.6083 461.125 48.445 461.125 45.695V33.98H456.285V26.665H457.66C459.09 26.665 460.154 26.2433 460.85 25.4C461.547 24.5566 461.895 23.4933 461.895 22.21V18.69H469.375V26.665Z" fill="black"/>
<path d="M479.346 46.465C479.346 45.255 479.548 44.1733 479.951 43.22C480.391 42.2666 480.978 41.46 481.711 40.8C482.444 40.1033 483.288 39.5533 484.241 39.15C485.231 38.71 486.294 38.3983 487.431 38.215L493.866 37.225C494.599 37.115 495.113 36.895 495.406 36.565C495.699 36.235 495.846 35.8316 495.846 35.355C495.846 34.5483 495.498 33.8516 494.801 33.265C494.141 32.6783 493.151 32.385 491.831 32.385C490.364 32.385 489.228 32.8066 488.421 33.65C487.651 34.4566 487.229 35.3733 487.156 36.4L479.896 34.915C479.969 33.925 480.263 32.8983 480.776 31.835C481.289 30.7716 482.023 29.8 482.976 28.92C483.966 28.04 485.194 27.3066 486.661 26.72C488.128 26.1333 489.869 25.84 491.886 25.84C494.086 25.84 495.956 26.1333 497.496 26.72C499.036 27.27 500.283 28.04 501.236 29.03C502.226 29.9833 502.923 31.1016 503.326 32.385C503.766 33.6683 503.986 35.0066 503.986 36.4V49.765C503.986 50.8283 504.023 51.7633 504.096 52.57C504.206 53.3766 504.279 53.8533 504.316 54H496.781C496.744 53.89 496.689 53.5966 496.616 53.12C496.543 52.6066 496.506 51.8733 496.506 50.92C495.773 52.0933 494.764 53.0283 493.481 53.725C492.198 54.4216 490.639 54.77 488.806 54.77C487.303 54.77 485.964 54.5316 484.791 54.055C483.618 53.615 482.628 53.01 481.821 52.24C481.014 51.47 480.391 50.59 479.951 49.6C479.548 48.61 479.346 47.565 479.346 46.465ZM490.841 48.72C491.464 48.72 492.069 48.6466 492.656 48.5C493.279 48.3166 493.811 48.0233 494.251 47.62C494.728 47.18 495.113 46.6116 495.406 45.915C495.699 45.2183 495.846 44.3383 495.846 43.275V42.065L490.676 42.89C489.796 43.0366 489.063 43.3483 488.476 43.825C487.889 44.265 487.596 44.9616 487.596 45.915C487.596 46.6483 487.834 47.3083 488.311 47.895C488.824 48.445 489.668 48.72 490.841 48.72Z" fill="black"/>
<path d="M517.112 53.45C517.405 54.77 518.065 55.8516 519.092 56.695C520.118 57.575 521.42 58.015 522.997 58.015C525.087 58.015 526.737 57.465 527.947 56.365C529.157 55.3016 529.762 53.5233 529.762 51.03V49.765C529.248 50.4983 528.387 51.195 527.177 51.855C526.003 52.515 524.427 52.845 522.447 52.845C520.613 52.845 518.927 52.515 517.387 51.855C515.847 51.1583 514.508 50.2233 513.372 49.05C512.235 47.84 511.337 46.4283 510.677 44.815C510.053 43.2016 509.742 41.4416 509.742 39.535C509.742 37.7383 510.053 36.0333 510.677 34.42C511.3 32.8066 512.162 31.395 513.262 30.185C514.398 28.9383 515.737 27.9666 517.277 27.27C518.853 26.5366 520.577 26.17 522.447 26.17C523.547 26.17 524.518 26.28 525.362 26.5C526.242 26.72 526.993 26.995 527.617 27.325C528.24 27.655 528.753 28.0216 529.157 28.425C529.56 28.8283 529.853 29.2133 530.037 29.58V26.665H538.012V50.59C538.012 52.57 537.718 54.44 537.132 56.2C536.582 57.96 535.702 59.5183 534.492 60.875C533.318 62.2316 531.815 63.295 529.982 64.065C528.148 64.8716 525.948 65.275 523.382 65.275C521.402 65.275 519.605 65 517.992 64.45C516.415 63.9 515.04 63.1666 513.867 62.25C512.73 61.3333 511.795 60.2883 511.062 59.115C510.365 57.9416 509.925 56.75 509.742 55.54L517.112 53.45ZM523.987 45.585C525.71 45.585 527.103 45.0533 528.167 43.99C529.267 42.89 529.817 41.405 529.817 39.535C529.817 38.6183 529.652 37.7933 529.322 37.06C529.028 36.29 528.607 35.6483 528.057 35.135C527.543 34.585 526.92 34.1816 526.187 33.925C525.49 33.6316 524.757 33.485 523.987 33.485C523.217 33.485 522.465 33.6316 521.732 33.925C521.035 34.1816 520.412 34.585 519.862 35.135C519.312 35.6483 518.872 36.29 518.542 37.06C518.248 37.7933 518.102 38.6183 518.102 39.535C518.102 41.405 518.652 42.89 519.752 43.99C520.888 45.0533 522.3 45.585 523.987 45.585Z" fill="black"/>
<path d="M562.926 34.915C562.449 34.805 561.991 34.7316 561.551 34.695C561.111 34.6583 560.689 34.64 560.286 34.64C559.442 34.64 558.636 34.7683 557.866 35.025C557.096 35.2816 556.417 35.7033 555.831 36.29C555.244 36.8766 554.767 37.6466 554.401 38.6C554.071 39.5533 553.906 40.7083 553.906 42.065V54H545.546V26.665H553.631V30.35C553.997 29.58 554.456 28.9383 555.006 28.425C555.592 27.9116 556.216 27.5083 556.876 27.215C557.536 26.9216 558.196 26.72 558.856 26.61C559.553 26.4633 560.176 26.39 560.726 26.39C561.569 26.39 562.303 26.4816 562.926 26.665V34.915Z" fill="black"/>
<path d="M566.401 46.465C566.401 45.255 566.603 44.1733 567.006 43.22C567.446 42.2666 568.033 41.46 568.766 40.8C569.5 40.1033 570.343 39.5533 571.296 39.15C572.286 38.71 573.349 38.3983 574.486 38.215L580.921 37.225C581.654 37.115 582.168 36.895 582.461 36.565C582.755 36.235 582.901 35.8316 582.901 35.355C582.901 34.5483 582.553 33.8516 581.856 33.265C581.196 32.6783 580.206 32.385 578.886 32.385C577.42 32.385 576.283 32.8066 575.476 33.65C574.706 34.4566 574.284 35.3733 574.211 36.4L566.951 34.915C567.025 33.925 567.318 32.8983 567.831 31.835C568.345 30.7716 569.078 29.8 570.031 28.92C571.021 28.04 572.249 27.3066 573.716 26.72C575.183 26.1333 576.924 25.84 578.941 25.84C581.141 25.84 583.011 26.1333 584.551 26.72C586.091 27.27 587.338 28.04 588.291 29.03C589.281 29.9833 589.978 31.1016 590.381 32.385C590.821 33.6683 591.041 35.0066 591.041 36.4V49.765C591.041 50.8283 591.078 51.7633 591.151 52.57C591.261 53.3766 591.334 53.8533 591.371 54H583.836C583.799 53.89 583.744 53.5966 583.671 53.12C583.598 52.6066 583.561 51.8733 583.561 50.92C582.828 52.0933 581.819 53.0283 580.536 53.725C579.253 54.4216 577.694 54.77 575.861 54.77C574.358 54.77 573.019 54.5316 571.846 54.055C570.673 53.615 569.683 53.01 568.876 52.24C568.069 51.47 567.446 50.59 567.006 49.6C566.603 48.61 566.401 47.565 566.401 46.465ZM577.896 48.72C578.52 48.72 579.124 48.6466 579.711 48.5C580.334 48.3166 580.866 48.0233 581.306 47.62C581.783 47.18 582.168 46.6116 582.461 45.915C582.755 45.2183 582.901 44.3383 582.901 43.275V42.065L577.731 42.89C576.851 43.0366 576.118 43.3483 575.531 43.825C574.944 44.265 574.651 44.9616 574.651 45.915C574.651 46.6483 574.889 47.3083 575.366 47.895C575.879 48.445 576.723 48.72 577.896 48.72Z" fill="black"/>
<path d="M598.337 54V26.665H606.312V29.8C606.642 29.2133 607.1 28.6816 607.687 28.205C608.274 27.6916 608.915 27.27 609.612 26.94C610.345 26.5733 611.097 26.2983 611.867 26.115C612.674 25.9316 613.444 25.84 614.177 25.84C616.157 25.84 617.825 26.225 619.182 26.995C620.539 27.7283 621.565 28.7733 622.262 30.13C623.325 28.59 624.535 27.49 625.892 26.83C627.249 26.17 628.862 25.84 630.732 25.84C632.015 25.84 633.262 26.0416 634.472 26.445C635.719 26.8116 636.8 27.4166 637.717 28.26C638.67 29.1033 639.422 30.185 639.972 31.505C640.559 32.825 640.852 34.42 640.852 36.29V54H632.767V38.16C632.767 36.8766 632.419 35.795 631.722 34.915C631.025 33.9983 629.925 33.54 628.422 33.54C626.919 33.54 625.782 34.0166 625.012 34.97C624.242 35.9233 623.857 37.005 623.857 38.215V54H615.607V38.16C615.607 36.8766 615.259 35.795 614.562 34.915C613.865 33.9983 612.747 33.54 611.207 33.54C609.74 33.54 608.622 34.0166 607.852 34.97C607.082 35.9233 606.697 37.0233 606.697 38.27V54H598.337Z" fill="black"/>
</svg>
