<svg width="131" height="35" viewBox="0 0 131 35" fill="none" xmlns="http://www.w3.org/2000/svg">
<path d="M83.7298 23.1661C82.3136 24.4035 80.5573 25.199 78.6828 25.4519C73.8707 26.2342 70.472 24.8313 68.5357 22.5061L69.4219 22.3138C75.1025 21.243 84.2925 19.4816 87.6158 14.4729C88.3221 13.4473 88.8133 12.2926 89.0603 11.0769C89.3989 9.49065 89.1736 7.83775 88.4223 6.396C86.3928 2.51053 81.5275 1.10756 77.3978 1.30424C76.0983 1.39672 74.8079 1.58814 73.5383 1.87679C66.1872 3.62503 62.0175 8.28848 60.6572 13.4851C60.412 14.4593 60.2636 15.4547 60.2141 16.4572C59.7222 19.6565 58.26 24.3243 50.5499 25.6355C45.7157 26.4222 41.8784 24.6739 39.9553 22.3662L40.8415 22.1739C46.5177 21.1031 55.7121 19.3418 59.0089 14.333C59.7175 13.3103 60.2089 12.1565 60.4534 10.9414C60.7945 9.35381 60.5691 7.69871 59.8153 6.25614C57.7903 2.37503 52.925 0.967698 48.7908 1.16438C47.4927 1.25652 46.2038 1.44795 44.9358 1.73693C37.5847 3.48517 33.415 8.14863 32.0547 13.3409C31.4876 15.5173 31.4165 17.7906 31.8464 19.9974C33.6587 29.1757 42.9596 32.9213 51.9014 31.6931C56.3591 31.0812 59.5051 29.4291 62.9791 25.9676C66.6613 30.8802 73.3655 32.7596 80.0343 31.4964C86.1358 30.312 91.5196 26.3959 92.0557 19.7963L85.5952 19.2893C85.4951 20.7638 84.8372 22.1473 83.7519 23.1661H83.7298ZM46.531 7.97816C53.9796 6.22992 57.8878 10.4738 49.0168 13.5988C45.3523 14.91 40.6377 15.6705 38.1873 16.1556C38.6658 11.7369 42.3348 8.97904 46.531 7.9738V7.97816ZM75.1202 8.11803C82.5688 6.36978 86.477 10.618 77.606 13.7386C73.946 15.0498 69.2269 15.8103 66.7765 16.2998C67.2551 11.8768 70.924 9.1189 75.1202 8.11803Z" fill="white"/>
<path d="M21.709 24.5299C19.8169 26.1295 15.5321 25.5264 13.6755 23.8961C11.4599 21.9337 10.8086 18.1706 10.875 14.0448C16.241 14.3114 22.0103 14.4469 26.7338 13.9443L26.0248 7.5544C21.8065 8.02205 16.4449 7.89094 11.4023 7.65493C11.6726 5.39095 12.0759 3.23187 12.3816 1.36562L12.4835 1.07278L6.07177 0.00634766L6.00529 0.307921C5.63308 2.37085 5.22985 4.76595 4.89309 7.30091C3.20486 7.20038 1.65399 7.13483 0.165153 7.09986L0.0322266 13.5247C1.21532 13.5553 2.69085 13.6208 4.38794 13.7213C4.21956 20.6138 5.63307 27.3358 11.4776 30.2947C15.829 32.48 22.1388 32.6243 25.985 29.4206C28.7189 27.0911 30.416 23.2318 30.642 17.2397L24.1284 17.008C23.96 21.0028 23.1136 23.3673 21.7311 24.5299" fill="white"/>
<path d="M127.717 2.61968C127.246 2.29622 126.727 2.04566 126.18 1.87667C122.453 0.639787 118.647 3.92649 115.43 8.31022C114.854 4.10132 112.771 1.0987 107.941 1.20359C103.856 1.31286 101.131 3.99642 99.2342 7.53225C99.088 5.16338 99.057 3.04363 99.1234 1.52265L92.211 1.20797C91.9938 5.51739 92.7471 13.402 93.394 20.395C93.9656 26.5138 94.5018 31.881 94.36 32.165L101.06 33.7166C101.06 33.5243 101.06 33.3407 101.06 33.1703C100.992 31.1025 101.057 29.0324 101.255 26.9728C101.631 22.8207 102.433 18.2315 103.692 14.5733C103.944 13.8172 104.224 13.0917 104.525 12.388C105.686 9.66075 108.548 4.93173 108.708 10.6616C108.819 14.4422 107.565 19.5646 106.847 22.4623C104.986 30.1327 110.861 31.0855 114.047 24.5864C115.089 22.4273 116.843 18.8609 118.598 15.5742C120.57 11.9684 124.868 3.20534 124.008 12.7814C123.579 16.4481 122.763 20.0604 121.571 23.5593C120.57 26.5619 119.422 29.145 118.527 30.4168L124.186 34.3023C125.44 32.5016 126.911 29.3198 128.129 25.679C129.458 21.7455 130.566 17.2 130.885 13.3452C131.328 8.61179 130.531 4.51215 127.735 2.6022" fill="white"/>
</svg>
