<svg width="139" height="248" viewBox="0 0 139 248" fill="none" xmlns="http://www.w3.org/2000/svg">
<path d="M42.551 177.441C42.6045 178.136 42.8719 178.765 43.3533 179.327C43.8615 179.862 44.6371 180.129 45.6802 180.129C46.4558 180.129 47.0308 179.955 47.4053 179.607C47.8065 179.26 48.0071 178.859 48.0071 178.404C48.0071 178.029 47.86 177.709 47.5658 177.441C47.2983 177.147 46.7901 176.92 46.0413 176.759L43.7545 176.238C42.6847 175.997 41.7754 175.676 41.0265 175.275C40.2776 174.874 39.6625 174.405 39.1811 173.871C38.6996 173.336 38.3519 172.747 38.138 172.105C37.924 171.463 37.817 170.795 37.817 170.099C37.817 169.19 38.0043 168.334 38.3787 167.532C38.7531 166.73 39.2747 166.034 39.9433 165.446C40.6387 164.831 41.4544 164.349 42.3905 164.002C43.3266 163.654 44.3563 163.48 45.4796 163.48C46.9239 163.48 48.1408 163.681 49.1304 164.082C50.1199 164.483 50.9223 164.991 51.5375 165.606C52.1793 166.195 52.6474 166.837 52.9416 167.532C53.2358 168.201 53.4096 168.829 53.4631 169.417L48.4082 170.34C48.328 169.672 48.0605 169.097 47.6059 168.615C47.1779 168.134 46.4959 167.893 45.5598 167.893C44.9714 167.893 44.4633 168.053 44.0354 168.374C43.6074 168.669 43.3935 169.083 43.3935 169.618C43.3935 170.046 43.5406 170.38 43.8348 170.621C44.129 170.862 44.5034 171.022 44.9581 171.102L47.6059 171.624C49.692 172.052 51.2299 172.841 52.2195 173.991C53.2358 175.114 53.7439 176.411 53.7439 177.882C53.7439 178.738 53.5835 179.567 53.2625 180.37C52.9416 181.172 52.4468 181.894 51.7782 182.536C51.1095 183.151 50.2804 183.646 49.2908 184.02C48.3013 184.422 47.1378 184.622 45.8006 184.622C44.2226 184.622 42.8987 184.408 41.8289 183.98C40.7858 183.526 39.9433 182.977 39.3014 182.336C38.6595 181.694 38.1781 181.012 37.8572 180.289C37.563 179.567 37.4025 178.925 37.3757 178.364L42.551 177.441Z" fill="black"/>
<path d="M71.1514 184.02C71.0979 183.833 71.0578 183.526 71.031 183.098C71.0043 182.643 70.9909 182.282 70.9909 182.015C70.456 182.87 69.6804 183.499 68.664 183.9C67.6745 184.275 66.6715 184.462 65.6552 184.462C64.4516 184.462 63.3684 184.261 62.4056 183.86C61.4695 183.432 60.6805 182.87 60.0386 182.175C59.3967 181.453 58.9019 180.624 58.5543 179.688C58.2333 178.752 58.0728 177.749 58.0728 176.679V164.082H64.1708V175.395C64.1708 176.358 64.4249 177.174 64.933 177.842C65.468 178.511 66.2837 178.845 67.3803 178.845C68.3966 178.845 69.1989 178.538 69.7873 177.923C70.4025 177.281 70.7101 176.452 70.7101 175.435V164.082H76.808V180.45C76.808 181.359 76.8348 182.148 76.8883 182.817C76.9417 183.459 76.9819 183.86 77.0086 184.02H71.1514Z" fill="black"/>
<path d="M88.4926 184.02H82.3947V164.082H88.292V166.368C88.5595 165.887 88.9072 165.473 89.3351 165.125C89.763 164.777 90.2177 164.496 90.6991 164.282C91.2073 164.042 91.7288 163.868 92.2637 163.761C92.8254 163.627 93.3603 163.56 93.8685 163.56C95.1255 163.56 96.2087 163.774 97.118 164.202C98.0274 164.603 98.7763 165.165 99.3647 165.887C99.9798 166.609 100.421 167.452 100.689 168.415C100.983 169.377 101.13 170.407 101.13 171.504V184.02H95.0319V172.547C95.0319 171.557 94.7644 170.741 94.2295 170.099C93.7214 169.431 92.9056 169.097 91.7823 169.097C90.766 169.097 89.9636 169.431 89.3752 170.099C88.7868 170.741 88.4926 171.57 88.4926 172.587V184.02Z" fill="black"/>
<path d="M17.8016 210.184V190.246H23.6187V192.533C23.8594 192.105 24.1937 191.717 24.6217 191.369C25.0496 190.995 25.5176 190.687 26.0258 190.446C26.5607 190.179 27.109 189.978 27.6706 189.845C28.259 189.711 28.8207 189.644 29.3556 189.644C30.7999 189.644 32.0168 189.925 33.0064 190.486C33.9959 191.021 34.7448 191.784 35.253 192.773C36.0286 191.65 36.9112 190.848 37.9008 190.366C38.8904 189.885 40.0672 189.644 41.4312 189.644C42.3673 189.644 43.2766 189.791 44.1592 190.085C45.0686 190.353 45.8575 190.794 46.5262 191.409C47.2216 192.024 47.7698 192.813 48.171 193.776C48.599 194.739 48.8129 195.902 48.8129 197.266V210.184H42.9156V198.63C42.9156 197.694 42.6615 196.905 42.1533 196.263C41.6451 195.595 40.8428 195.261 39.7462 195.261C38.6497 195.261 37.8205 195.608 37.2589 196.304C36.6972 196.999 36.4164 197.788 36.4164 198.671V210.184H30.3987V198.63C30.3987 197.694 30.1446 196.905 29.6364 196.263C29.1283 195.595 28.3125 195.261 27.1892 195.261C26.1194 195.261 25.3037 195.608 24.742 196.304C24.1804 196.999 23.8995 197.801 23.8995 198.711V210.184H17.8016Z" fill="black"/>
<path d="M63.6926 205.17C64.281 205.17 64.8426 205.076 65.3775 204.889C65.9124 204.675 66.3805 204.367 66.7817 203.966C67.2096 203.538 67.5439 203.017 67.7846 202.402C68.0521 201.786 68.1858 201.051 68.1858 200.195C68.1858 199.366 68.0521 198.644 67.7846 198.029C67.5439 197.387 67.2096 196.865 66.7817 196.464C66.3805 196.063 65.9124 195.769 65.3775 195.581C64.8426 195.368 64.281 195.261 63.6926 195.261C63.1309 195.261 62.5693 195.368 62.0076 195.581C61.4727 195.769 60.9913 196.063 60.5634 196.464C60.1622 196.865 59.8279 197.387 59.5604 198.029C59.3197 198.644 59.1993 199.366 59.1993 200.195C59.1993 201.024 59.3197 201.76 59.5604 202.402C59.8279 203.017 60.1622 203.538 60.5634 203.966C60.9913 204.367 61.4727 204.675 62.0076 204.889C62.5693 205.076 63.1309 205.17 63.6926 205.17ZM63.6926 189.644C65.1903 189.644 66.5811 189.911 67.8649 190.446C69.1486 190.955 70.2586 191.677 71.1947 192.613C72.1575 193.549 72.9064 194.659 73.4413 195.943C74.0029 197.226 74.2838 198.644 74.2838 200.195C74.2838 201.746 74.0029 203.177 73.4413 204.488C72.9064 205.771 72.1575 206.881 71.1947 207.818C70.2586 208.754 69.1486 209.489 67.8649 210.024C66.5811 210.532 65.1903 210.786 63.6926 210.786C62.1948 210.786 60.8041 210.532 59.5203 210.024C58.2365 209.489 57.1132 208.754 56.1504 207.818C55.2143 206.881 54.4654 205.771 53.9037 204.488C53.3688 203.177 53.1014 201.746 53.1014 200.195C53.1014 198.644 53.3688 197.226 53.9037 195.943C54.4654 194.659 55.2143 193.549 56.1504 192.613C57.1132 191.677 58.2365 190.955 59.5203 190.446C60.8041 189.911 62.1948 189.644 63.6926 189.644Z" fill="black"/>
<path d="M88.1664 205.17C88.7548 205.17 89.3165 205.076 89.8514 204.889C90.3863 204.675 90.8543 204.367 91.2555 203.966C91.6834 203.538 92.0178 203.017 92.2585 202.402C92.5259 201.786 92.6597 201.051 92.6597 200.195C92.6597 199.366 92.5259 198.644 92.2585 198.029C92.0178 197.387 91.6834 196.865 91.2555 196.464C90.8543 196.063 90.3863 195.769 89.8514 195.581C89.3165 195.368 88.7548 195.261 88.1664 195.261C87.6048 195.261 87.0431 195.368 86.4815 195.581C85.9465 195.769 85.4651 196.063 85.0372 196.464C84.636 196.865 84.3017 197.387 84.0342 198.029C83.7935 198.644 83.6732 199.366 83.6732 200.195C83.6732 201.024 83.7935 201.76 84.0342 202.402C84.3017 203.017 84.636 203.538 85.0372 203.966C85.4651 204.367 85.9465 204.675 86.4815 204.889C87.0431 205.076 87.6048 205.17 88.1664 205.17ZM88.1664 189.644C89.6642 189.644 91.0549 189.911 92.3387 190.446C93.6225 190.955 94.7324 191.677 95.6685 192.613C96.6313 193.549 97.3802 194.659 97.9151 195.943C98.4768 197.226 98.7576 198.644 98.7576 200.195C98.7576 201.746 98.4768 203.177 97.9151 204.488C97.3802 205.771 96.6313 206.881 95.6685 207.818C94.7324 208.754 93.6225 209.489 92.3387 210.024C91.0549 210.532 89.6642 210.786 88.1664 210.786C86.6687 210.786 85.2779 210.532 83.9941 210.024C82.7104 209.489 81.587 208.754 80.6242 207.818C79.6881 206.881 78.9392 205.771 78.3776 204.488C77.8427 203.177 77.5752 201.746 77.5752 200.195C77.5752 198.644 77.8427 197.226 78.3776 195.943C78.9392 194.659 79.6881 193.549 80.6242 192.613C81.587 191.677 82.7104 190.955 83.9941 190.446C85.2779 189.911 86.6687 189.644 88.1664 189.644Z" fill="black"/>
<path d="M109.27 210.184H103.172V190.246H109.07V192.533C109.337 192.051 109.685 191.637 110.113 191.289C110.541 190.941 110.995 190.66 111.477 190.446C111.985 190.206 112.507 190.032 113.041 189.925C113.603 189.791 114.138 189.724 114.646 189.724C115.903 189.724 116.986 189.938 117.896 190.366C118.805 190.767 119.554 191.329 120.142 192.051C120.758 192.773 121.199 193.616 121.466 194.579C121.76 195.541 121.908 196.571 121.908 197.668V210.184H115.81V198.711C115.81 197.721 115.542 196.905 115.007 196.263C114.499 195.595 113.683 195.261 112.56 195.261C111.544 195.261 110.741 195.595 110.153 196.263C109.565 196.905 109.27 197.734 109.27 198.751V210.184Z" fill="black"/>
<path d="M37.4444 232.846H39.9143L43.7656 239.46L47.617 232.846H49.9613L44.7285 241.344V247.686H42.6772V241.344L37.4444 232.846Z" fill="black"/>
<path d="M54.2131 240.255C54.2131 241.218 54.3596 242.069 54.6526 242.809C54.9596 243.535 55.3573 244.149 55.8457 244.651C56.348 245.139 56.9202 245.509 57.562 245.76C58.2039 245.997 58.8737 246.116 59.5714 246.116C60.2552 246.116 60.918 245.997 61.5599 245.76C62.2157 245.509 62.7879 245.139 63.2763 244.651C63.7786 244.149 64.1763 243.535 64.4693 242.809C64.7763 242.069 64.9298 241.218 64.9298 240.255C64.9298 239.293 64.7763 238.448 64.4693 237.723C64.1763 236.983 63.7786 236.369 63.2763 235.881C62.7879 235.392 62.2157 235.03 61.5599 234.792C60.918 234.541 60.2552 234.416 59.5714 234.416C58.8737 234.416 58.2039 234.541 57.562 234.792C56.9202 235.03 56.348 235.392 55.8457 235.881C55.3573 236.369 54.9596 236.983 54.6526 237.723C54.3596 238.448 54.2131 239.293 54.2131 240.255ZM52.1199 240.255C52.1199 239.013 52.3292 237.918 52.7479 236.969C53.1804 236.006 53.7456 235.197 54.4433 234.541C55.141 233.885 55.9364 233.39 56.8295 233.055C57.7225 232.706 58.6365 232.532 59.5714 232.532C60.5064 232.532 61.4204 232.706 62.3134 233.055C63.2065 233.39 64.0019 233.885 64.6996 234.541C65.3973 235.197 65.9555 236.006 66.3741 236.969C66.8067 237.918 67.023 239.013 67.023 240.255C67.023 241.497 66.8067 242.6 66.3741 243.562C65.9555 244.525 65.3973 245.335 64.6996 245.991C64.0019 246.646 63.2065 247.149 62.3134 247.498C61.4204 247.832 60.5064 248 59.5714 248C58.6365 248 57.7225 247.832 56.8295 247.498C55.9364 247.149 55.141 246.646 54.4433 245.991C53.7456 245.335 53.1804 244.525 52.7479 243.562C52.3292 242.6 52.1199 241.497 52.1199 240.255Z" fill="black"/>
<path d="M82.9296 247.686L82.7413 245.593C82.5738 245.886 82.3505 246.179 82.0715 246.472C81.7924 246.751 81.4505 247.009 81.0458 247.246C80.6551 247.47 80.2016 247.651 79.6853 247.791C79.1829 247.93 78.6178 248 77.9899 248C77.0549 248 76.1549 247.832 75.2897 247.498C74.4246 247.163 73.6571 246.667 72.9873 246.011C72.3175 245.356 71.7803 244.546 71.3756 243.583C70.9849 242.621 70.7895 241.511 70.7895 240.255C70.7895 238.999 70.9988 237.89 71.4175 236.927C71.8361 235.964 72.3873 235.162 73.071 234.52C73.7687 233.864 74.5572 233.369 75.4363 233.034C76.3154 232.699 77.2154 232.532 78.1364 232.532C78.9457 232.532 79.6993 232.643 80.397 232.867C81.1086 233.076 81.7435 233.376 82.3017 233.767C82.8738 234.157 83.3622 234.632 83.7669 235.19C84.1855 235.734 84.4995 236.341 84.7088 237.011L82.8459 237.806C82.511 236.732 81.9319 235.902 81.1086 235.316C80.2853 234.716 79.2946 234.416 78.1364 234.416C77.4666 234.416 76.8177 234.534 76.1898 234.771C75.5619 235.009 75.0037 235.371 74.5153 235.86C74.0269 236.348 73.6292 236.962 73.3222 237.702C73.0292 238.427 72.8827 239.279 72.8827 240.255C72.8827 241.246 73.0222 242.111 73.3013 242.851C73.5943 243.576 73.9781 244.183 74.4525 244.672C74.9409 245.16 75.4921 245.53 76.1061 245.781C76.734 246.018 77.3829 246.137 78.0527 246.137C78.876 246.137 79.5737 246.011 80.1458 245.76C80.7179 245.495 81.1854 245.167 81.5482 244.776C81.911 244.386 82.1761 243.967 82.3436 243.521C82.511 243.06 82.6087 242.642 82.6366 242.265H77.4875V240.423H84.5832V247.686H82.9296Z" fill="black"/>
<path d="M98.3726 243.542H91.8002L90.2303 247.686H88.0325L93.9352 232.846H96.3004L102.203 247.686H99.9843L98.3726 243.542ZM92.5328 241.637H97.64L95.0654 234.981L92.5328 241.637Z" fill="black"/>
<path d="M79.4514 53.3749C72.9104 53.3749 67.5904 48.0549 67.5904 41.5139C67.5904 34.9728 72.9104 29.6528 79.4514 29.6528C85.9924 29.6528 91.3124 34.9728 91.3124 41.5139C91.3124 48.0549 85.9924 53.3749 79.4514 53.3749ZM79.4514 34.5368C75.614 34.5368 72.5615 37.5892 72.5615 41.4266C72.5615 45.264 75.614 48.3165 79.4514 48.3165C83.2888 48.3165 86.3412 45.264 86.3412 41.4266C86.3412 37.6765 83.2016 34.5368 79.4514 34.5368Z" fill="black"/>
<path d="M110.674 143.03C109.278 143.03 108.145 141.896 108.145 140.501V95.0625C108.145 70.2067 96.1091 64.9739 86.0796 64.9739H41.6008C40.2054 64.9739 39.0716 63.8401 39.0716 62.4447C39.0716 61.0493 40.2054 59.9155 41.6008 59.9155H86.0796C103.261 59.9155 113.116 72.7359 113.116 94.9753V140.413C113.203 141.896 112.069 143.03 110.674 143.03Z" fill="black"/>
<path d="M41.688 109.191H13.2564C11.861 109.191 10.7272 108.058 10.7272 106.662C10.7272 105.267 11.861 104.133 13.2564 104.133H41.6008C73.5209 104.133 99.5105 78.7538 99.5105 47.6186V11.5995C99.5105 10.2041 100.644 9.07031 102.04 9.07031C103.435 9.07031 104.569 10.2041 104.569 11.5995V47.6186C104.482 81.6318 76.3117 109.191 41.688 109.191Z" fill="black"/>
<path d="M118.087 109.191C126.372 98.7258 131.256 85.4693 131.256 71.0791C131.256 52.241 122.796 35.3216 109.366 23.9839V30.7865C119.744 41.0777 126.285 55.3807 126.285 71.1663C126.285 81.8936 123.32 91.9231 118.087 100.557V109.191Z" fill="black"/>
<path d="M69.5091 127.855C55.3805 127.855 42.4729 122.71 32.5306 114.163H25.2919C36.5424 125.675 52.2408 132.913 69.5963 132.913C82.0678 132.913 93.6672 129.163 103.348 122.797V116.692C93.8416 123.669 82.155 127.855 69.5091 127.855Z" fill="black"/>
<path d="M69.5091 9.24463C35.4086 9.24463 7.67477 36.9785 7.67477 71.0789C7.67477 81.2829 10.1167 90.8764 14.5646 99.3361H20.2335C15.4368 90.9636 12.6459 81.3701 12.6459 71.0789C12.6459 39.7693 38.1122 14.303 69.4218 14.303C78.4048 14.303 86.9517 16.3961 94.5393 20.1463V14.6519C86.9517 11.1633 78.4048 9.24463 69.5091 9.24463Z" fill="black"/>
</svg>
