<svg width="1094" height="399" viewBox="0 0 1094 399" fill="none" xmlns="http://www.w3.org/2000/svg">
<path d="M15.8903 8.20323C16.0885 3.87474 12.7388 0.205749 8.40851 0.00830126C4.07822 -0.189147 0.407137 3.15972 0.208911 7.48821C-2.21978 60.5215 16.3382 145.868 65.8135 223.646C115.449 301.675 196.484 372.499 319.131 395.299C383.809 407.323 455.31 386.878 529.685 358.509C553.693 349.352 577.997 339.374 602.592 329.277L602.593 329.277L602.595 329.276C654.983 307.769 708.69 285.721 763.664 269.905C844.077 246.769 925.607 237.539 1006.28 263.483C1025.12 269.543 1043.98 277.545 1062.83 287.788H1093.63C1066.32 270.284 1038.78 257.451 1011.09 248.546C926.261 221.265 841.254 231.254 759.324 254.826C703.525 270.88 648.409 293.5 595.598 315.175C571.218 325.181 547.328 334.985 524.09 343.849C449.745 372.206 381.954 391.018 322.004 379.873C204.359 358.002 126.785 290.25 79.0606 215.225C31.1756 139.947 13.6208 57.7596 15.8903 8.20323Z" fill="#C4BADD"/>
</svg>
