<svg width="460" height="436" viewBox="0 0 460 436" fill="none" xmlns="http://www.w3.org/2000/svg">
<path d="M25.6415 365.224H0C30.3137 389.857 60.099 407.484 89.0994 418.925C163.129 448.132 231.247 436.705 288.132 400.059C344.726 363.602 389.933 302.415 419.604 232.191C449.298 161.912 463.709 81.9501 458.158 7.26343C457.837 2.94242 454.072 -0.299647 449.75 0.022008C445.427 0.343724 442.182 4.10737 442.504 8.42844C447.855 80.4388 433.947 157.917 405.143 226.088C376.317 294.313 332.848 352.588 279.63 386.871C226.704 420.965 163.875 431.557 94.8646 404.33C72.4681 395.494 49.3396 382.641 25.6415 365.224Z" fill="#C4BADD"/>
</svg>
