<svg width="170" height="218" viewBox="0 0 170 218" fill="none" xmlns="http://www.w3.org/2000/svg">
<path d="M88.0001 182.2C77.4001 182.2 68.6001 190.2 68.6001 200C68.6001 210 77.4001 218 88.0001 218C98.8001 218 107.4 210 107.4 200C107.4 190.2 98.8001 182.2 88.0001 182.2ZM141.8 17.1997C114.6 -5.00024 70.6001 -8.80025 27.8001 31.3998C13.8001 44.3998 3.60005 61.3998 0.800049 81.3998L39 86.7998C40.6 76.1998 46.4001 66.9998 54.2001 59.3998C81.2001 34.1998 105.2 36.3998 119 48.3998C130.8 58.5998 134.8 76.1997 126.4 90.1997C124 93.9998 118.6 97.5997 112.6 101.4C93.4 113.6 72.6001 126.8 72.6001 170.6H111.2C111.2 147.8 122.8 140.6 133.4 133.8C143 127.6 152.4 121.8 159.4 110.2C179.2 77.3998 168.2 38.7998 141.8 17.1997Z" fill="#016373"/>
</svg>
