<svg width="115" height="87" viewBox="0 0 115 87" fill="none" xmlns="http://www.w3.org/2000/svg">
<path d="M86.09 57.5199C90.685 57.5199 94.41 53.7949 94.41 49.1999C94.41 44.6049 90.685 40.8799 86.09 40.8799C81.495 40.8799 77.77 44.6049 77.77 49.1999C77.77 53.7949 81.495 57.5199 86.09 57.5199Z" stroke="#9AC1D1" stroke-width="5" stroke-linecap="round" stroke-linejoin="round"/>
<path d="M82.43 30.25C82.43 30.25 73.5101 1.19001 56.0101 3.17001C38.5101 5.15001 41.15 36.17 32.56 46.44C23.97 56.71 8.12006 64.6 4.49006 67.58C0.860064 70.56 5.81004 73.19 10.43 74.84" stroke="#9AC1D1" stroke-width="5" stroke-linecap="round" stroke-linejoin="round"/>
<path d="M94.3401 64.7798C94.3401 64.7798 99.0401 82.0798 103.17 82.9098C106.225 83.4274 109.322 83.6617 112.42 83.6098" stroke="#9AC1D1" stroke-width="5" stroke-linecap="round" stroke-linejoin="round"/>
</svg>
