<svg width="104" height="115" viewBox="0 0 104 115" fill="none" xmlns="http://www.w3.org/2000/svg">
<path d="M18.73 2.62012C18.73 2.62012 29.3 19.4701 29.63 37.6201C29.96 55.7701 21.71 65.7001 20.39 71.9701C19.07 78.2401 12.2 102.03 11.5 106.97" stroke="#9AC1D1" stroke-width="5" stroke-linecap="round" stroke-linejoin="round"/>
<path d="M33.93 57.1201C33.93 57.1201 40.86 75.2801 63.93 85.1901C78.1283 91.3856 90.8617 100.504 101.3 111.95" stroke="#9AC1D1" stroke-width="5" stroke-linecap="round" stroke-linejoin="round"/>
<path d="M44.16 79.5801H31.29C30.4181 79.578 29.5554 79.7578 28.7569 80.1079C27.9584 80.458 27.2417 80.9708 26.6526 81.6136C26.0635 82.2563 25.615 83.0149 25.3356 83.8407C25.0562 84.6666 24.9521 85.5417 25.03 86.4101C25.78 94.9301 26.61 108.41 24.35 108.64C22.1776 108.833 19.9924 108.833 17.8199 108.64" stroke="#9AC1D1" stroke-width="5" stroke-linecap="round" stroke-linejoin="round"/>
<path d="M11.5 54.8099C16.095 54.8099 19.82 51.0849 19.82 46.4899C19.82 41.8949 16.095 38.1699 11.5 38.1699C6.90498 38.1699 3.17999 41.8949 3.17999 46.4899C3.17999 51.0849 6.90498 54.8099 11.5 54.8099Z" stroke="#9AC1D1" stroke-width="5" stroke-linecap="round" stroke-linejoin="round"/>
</svg>
