<svg width="51" height="91" viewBox="0 0 51 91" fill="none" xmlns="http://www.w3.org/2000/svg">
<path d="M36.2 54.14C40.795 54.14 44.52 50.415 44.52 45.82C44.52 41.225 40.795 37.5 36.2 37.5C31.605 37.5 27.88 41.225 27.88 45.82C27.88 50.415 31.605 54.14 36.2 54.14Z" stroke="#9AC1D1" stroke-width="5" stroke-linecap="round" stroke-linejoin="round"/>
<path d="M36.1999 26.6301C36.1999 26.6301 33.2999 4.51006 18.4399 3.18006C3.57992 1.85006 0.599919 5.06007 4.59992 16.8401C8.59992 28.6201 19.1299 38.5201 18.1399 58.6701C17.1499 78.8201 16.1399 83.5001 16.1399 83.5001L27.8999 86.7401" stroke="#9AC1D1" stroke-width="5" stroke-linecap="round" stroke-linejoin="round"/>
<path d="M42.54 62.96L45.5201 85.75L47.8301 88.06" stroke="#9AC1D1" stroke-width="5" stroke-linecap="round" stroke-linejoin="round"/>
</svg>
