<svg width="141" height="37" viewBox="0 0 141 37" fill="none" xmlns="http://www.w3.org/2000/svg">
<path d="M129.83 22.5999C134.425 22.5999 138.15 18.875 138.15 14.28C138.15 9.68496 134.425 5.95996 129.83 5.95996C125.235 5.95996 121.51 9.68496 121.51 14.28C121.51 18.875 125.235 22.5999 129.83 22.5999Z" stroke="#9AC1D1" stroke-width="5" stroke-linecap="round" stroke-linejoin="round"/>
<path d="M3.29004 14.2801C3.29004 11.7701 0.290039 3.51009 6.29004 4.17009C12.29 4.83009 28.08 24.9801 45.29 18.3801C62.5 11.7801 64.4401 5.38006 74.0201 4.14006C83.6 2.90006 92.85 14.9301 100.11 22.6001" stroke="#9AC1D1" stroke-width="5" stroke-linecap="round" stroke-linejoin="round"/>
<path d="M104.89 5.97016C104.89 5.97016 99.07 -1.15984 100.06 5.97016C101.05 13.1002 111.62 31.5901 123.18 33.5701" stroke="#9AC1D1" stroke-width="5" stroke-linecap="round" stroke-linejoin="round"/>
</svg>
